<?xml version="1.0" encoding="UTF-8"?>
<svg width="32px" height="32px" viewBox="0 0 32 32" version="1.1" xmlns="http://www.w3.org/2000/svg" xmlns:xlink="http://www.w3.org/1999/xlink">
    <!-- Generator: sketchtool 63.1 (101010) - https://sketch.com -->
    <title>E066AE91-CE27-4860-9911-B5C5849FA042</title>
    <desc>Created with sketchtool.</desc>
    <g id="Page-1" stroke="none" stroke-width="1" fill="none" fill-rule="evenodd">
        <g id="1.3.Shopping-cart" transform="translate(-968.000000, -24.000000)">
            <g id="btn_close" transform="translate(968.000000, 24.000000)">
                <path d="M5.1277704,-2.07168062e-16 L26.8722296,2.07168062e-16 C28.6552671,-1.2037061e-16 29.3018396,0.185651222 29.9536914,0.534265408 C30.6055433,0.882879593 31.1171204,1.39445674 31.4657346,2.04630859 C31.8143488,2.69816044 32,3.34473292 32,5.1277704 L32,26.8722296 C32,28.6552671 31.8143488,29.3018396 31.4657346,29.9536914 C31.1171204,30.6055433 30.6055433,31.1171204 29.9536914,31.4657346 C29.3018396,31.8143488 28.6552671,32 26.8722296,32 L5.1277704,32 C3.34473292,32 2.69816044,31.8143488 2.04630859,31.4657346 C1.39445674,31.1171204 0.882879593,30.6055433 0.534265408,29.9536914 C0.185651222,29.3018396 8.02470732e-17,28.6552671 -1.38112041e-16,26.8722296 L1.38112041e-16,5.1277704 C-8.02470732e-17,3.34473292 0.185651222,2.69816044 0.534265408,2.04630859 C0.882879593,1.39445674 1.39445674,0.882879593 2.04630859,0.534265408 C2.69816044,0.185651222 3.34473292,1.2037061e-16 5.1277704,-2.07168062e-16 Z" id="bg_btn" fill="#E8E9F2"></path>
                <path d="M16.000054,14.7253195 L18.394054,12.2808486 C18.737054,11.9306226 19.321054,11.9048445 19.698054,12.2230702 C20.075054,12.5412959 20.103054,13.083524 19.760054,13.43375 L17.248054,16 L19.760054,18.56625 C20.103054,18.916476 20.075054,19.4587041 19.698054,19.7769298 C19.321054,20.0951555 18.737054,20.0702663 18.394054,19.7191514 L16.000054,17.2746805 L13.606054,19.7191514 C13.263054,20.0693774 12.679054,20.0951555 12.302054,19.7769298 C11.925054,19.4587041 11.897054,18.916476 12.240054,18.56625 L14.752054,16 L12.240054,13.43375 C11.897054,13.083524 11.925054,12.5412959 12.302054,12.2230702 C12.679054,11.9048445 13.263054,11.9297337 13.606054,12.2808486 L16.000054,14.7253195 Z" id="x" fill="#26283C" fill-rule="nonzero"></path>
            </g>
        </g>
    </g>
</svg>