<?xml version="1.0" encoding="UTF-8"?>
<svg width="224px" height="257px" viewBox="0 0 224 257" version="1.1" xmlns="http://www.w3.org/2000/svg" xmlns:xlink="http://www.w3.org/1999/xlink">
    <!-- Generator: sketchtool 63.1 (101010) - https://sketch.com -->
    <title>124BB88F-8DF5-48FD-91DA-878DDD297939</title>
    <desc>Created with sketchtool.</desc>
    <defs>
        <polygon id="path-1" points="0.329642948 0.353206806 15.9876556 0.353206806 15.9876556 11.6597564 0.329642948 11.6597564"></polygon>
        <polygon id="path-3" points="0.235118182 0.145408 110.796836 0.145408 110.796836 15.934848 0.235118182 15.934848"></polygon>
    </defs>
    <g id="Page-1" stroke="none" stroke-width="1" fill="none" fill-rule="evenodd">
        <g id="1.4.Shopping-cart---empty" transform="translate(-712.000000, -184.000000)">
            <g id="empty" transform="translate(712.000000, 184.000000)">
                <g id="Group-118">
                    <path d="M57.8058779,4.86463325 C60.9681516,8.6967589 62.7224253,13.6625102 62.6685305,18.6282615 C62.6375411,21.4653531 62.1140884,24.5951018 63.7673095,26.9033924 C65.0217095,28.6552982 67.3088674,29.5325966 68.3281516,31.4304945 C69.5542568,33.7132196 68.5093726,36.5967327 69.2632253,39.0745626 C70.3323621,42.5884657 74.4532884,44.0571332 76.8967411,46.8013819 C79.0154779,49.1809866 79.7996463,52.6632694 78.9460884,55.7317955 C78.0925305,58.799649 75.6430147,61.3676306 72.6296253,62.4084134 C71.0114358,62.9674893 69.1614989,63.087916 67.6295411,62.3249893 C65.97632,61.5028584 64.9556884,59.8148662 64.1277305,58.1665678 C62.5007832,54.9271568 48.2382147,37.396662 47.4304674,33.8639212" id="Fill-1" fill="#26283C"></path>
                    <path d="M47.4301979,0.732046335 C41.5981137,-0.205801832 35.9923874,3.66130812 33.5354611,9.02601492 C31.0778611,14.3907217 31.0104926,20.492117 30.8292716,26.3889887 C30.6480505,32.2858605 30.2337347,38.4410777 27.2189979,43.5151458 C25.3064084,46.7357191 22.3435453,49.560028 21.8793768,53.2757636 C21.46304,56.6019626 23.1876716,59.9523814 22.61504,63.2563788 C22.1165137,66.1318186 19.9223242,68.6345411 20.0085558,71.5516929 C20.1136505,75.0615594 23.72864,77.7062374 27.2432505,77.8004259 C30.7578611,77.8946144 34.0420716,76.0552479 36.79744,73.8741118 C41.2686821,70.3359887 44.8931032,65.7368997 47.2860295,60.5646065" id="Fill-3" fill="#26283C"></path>
                    <path d="M37.8351158,14.6218199 C37.0644211,8.47938534 41.5141053,2.86575183 47.7598316,2.27169162 C53.6464842,1.71127016 58.8783158,6.08834346 59.7601684,11.9280293 C60.5335579,17.0465005 61.1984842,22.2140843 61.1749053,24.0904534 C61.1028211,29.7498356 57.7869474,31.9531733 56.4429474,32.614511 C56.1364211,32.7652126 55.2902737,32.9367702 54.9514105,32.9852099 C54.9305263,32.987901 54.9157053,33.0080843 54.9204211,33.0289403 L56.1788632,39.5252545 C56.7488,43.781901 54.3700211,47.5776969 50.1150316,48.1973225 C45.8452211,48.8189665 42.5077895,45.5499534 41.8563368,41.2906157 L37.8351158,14.6218199 Z" id="Fill-5" fill="#FFBF9D"></path>
                    <path d="M58.6015663,14.4070029 C58.5079242,14.5395395 57.7594611,14.1385657 56.8008084,14.281194 C55.8408084,14.4090212 55.2088926,15.004427 55.0876295,14.9021652 C55.0290189,14.857762 55.1105347,14.6317097 55.3847242,14.3646181 C55.6541979,14.098872 56.1372295,13.8075605 56.7347874,13.7227908 C57.3330189,13.6393668 57.8679242,13.7860317 58.1899453,13.9690264 C58.5173558,14.1520212 58.6480505,14.3477987 58.6015663,14.4070029" id="Fill-7" fill="#26283C"></path>
                    <path d="M50.0709726,16.4765929 C49.9773305,16.6091296 49.2281937,16.2081558 48.2702147,16.350784 C47.3102147,16.4786113 46.6782989,17.074017 46.5570358,16.9717552 C46.4984253,16.9273521 46.5792674,16.7012997 46.8548042,16.4342081 C47.1236042,16.1677893 47.6066358,15.8771505 48.2041937,15.7923809 C48.8024253,15.7089568 49.3373305,15.8556217 49.6593516,16.0386165 C49.9867621,16.2216113 50.1174568,16.416716 50.0709726,16.4765929" id="Fill-9" fill="#26283C"></path>
                    <path d="M53.5683368,21.6120853 C53.5555368,21.5582634 54.1369263,21.3685408 55.0854737,21.1048131 C55.3266526,21.0435906 55.5509895,20.961512 55.5678316,20.7879361 C55.6001684,20.602923 55.4593684,20.3546691 55.2990316,20.0869047 C54.9824,19.5285016 54.6502737,18.9431874 54.3026526,18.3302895 C52.9094737,15.8242031 51.8632421,13.7493654 51.9649684,13.6941979 C52.0660211,13.6390304 53.2773053,15.6257346 54.6704842,18.1311482 C55.008,18.750101 55.3306947,19.3394518 55.6378947,19.9039099 C55.7712842,20.1683105 55.9767579,20.4602948 55.9053474,20.845122 C55.8662737,21.0375356 55.7052632,21.1963105 55.5550316,21.2615696 C55.4048,21.332211 55.2673684,21.3550853 55.1474526,21.379978 C54.1827368,21.5737372 53.5797895,21.6659073 53.5683368,21.6120853" id="Fill-11" fill="#26283C"></path>
                    <path d="M54.9127411,32.9904576 C54.9127411,32.9904576 51.2532884,33.8334445 46.2148042,31.7269864 C46.2148042,31.7269864 48.3901305,36.4034445 55.2516042,34.7410178 L54.9127411,32.9904576 Z" id="Fill-13" fill="#FF9A6C"></path>
                    <path d="M49.5884126,13.9671427 C49.5318232,14.240962 48.5556547,14.2571086 47.4501389,14.5564935 C46.33856,14.8336767 45.4789389,15.2945275 45.2956968,15.0832762 C45.2128337,14.9810144 45.3354442,14.7125772 45.6655495,14.4071374 C45.9922863,14.1023704 46.5379705,13.7787657 47.2022232,13.6051898 C47.8671495,13.4329594 48.50176,13.4497788 48.9356126,13.55675 C49.3728337,13.6630484 49.6113179,13.8372971 49.5884126,13.9671427" id="Fill-15" fill="#26283C"></path>
                    <path d="M57.8147705,12.2841963 C57.6773389,12.5263953 56.9841179,12.3965497 56.1871495,12.5021754 C55.3874863,12.5788717 54.7414232,12.8614372 54.5534653,12.6569136 C54.4692547,12.5559974 54.54336,12.3225445 54.8074442,12.0742906 C55.0668126,11.8267094 55.5269389,11.5878743 56.0759916,11.5253063 C56.6243705,11.4627382 57.1262653,11.5912382 57.4354863,11.774233 C57.7487495,11.956555 57.8733811,12.1671335 57.8147705,12.2841963" id="Fill-17" fill="#26283C"></path>
                    <path d="M47.9923874,17.7134223 C48.0584084,18.1291971 48.46464,18.416472 48.9011874,18.3559223 C49.3363874,18.2953725 49.6368505,17.9098725 49.5715032,17.4940976 C49.5054821,17.0783228 49.0985768,16.7903751 48.6633768,16.8509249 C48.2268295,16.9114746 47.9263663,17.2976474 47.9923874,17.7134223" id="Fill-19" fill="#26283C"></path>
                    <path d="M56.4857937,15.8783615 C56.5511411,16.2941364 56.9580463,16.5814113 57.3945937,16.5208615 C57.8297937,16.4603118 58.1302568,16.0748118 58.0642358,15.6590369 C57.9988884,15.243262 57.5919832,14.9553144 57.1567832,15.0158641 C56.7202358,15.0764139 56.4197726,15.4625866 56.4857937,15.8783615" id="Fill-21" fill="#26283C"></path>
                    <path d="M55.0769179,23.4772864 C54.4598232,23.299001 53.9282863,23.6104958 53.6783495,24.0578911 C53.4277389,24.5046136 53.4876968,25.116166 53.8481179,25.4801372 C54.2085389,25.8447812 54.8498863,25.901967 55.24736,25.5790351 C55.5175074,25.3597105 55.6529179,25.0098675 55.6879495,24.6640613 C55.7196126,24.3444932 55.6670653,24.0027236 55.4696758,23.7497602 C55.27296,23.4961241 54.9071495,23.3602236 54.6134232,23.4907419" id="Fill-23" fill="#FF9A6C"></path>
                    <g id="Group-27" transform="translate(43.115789, 0.000000)">
                        <mask id="mask-2" fill="white">
                            <use xlink:href="#path-1"></use>
                        </mask>
                        <g id="Clip-26"></g>
                        <path d="M15.8969937,7.34912356 C15.4584253,5.22046387 13.9904674,3.4046445 12.2038568,2.16404764 C10.6860463,1.1104822 8.89135158,0.41281466 7.04276211,0.356301571 C5.19552,0.299788482 3.30179368,0.920086911 1.96655158,2.19701361 C0.979604211,3.14158953 0.474341053,4.47839319 0.428530526,5.84143508 L0.535646316,4.90089581 C0.258762105,5.67391414 0.259435789,6.51219162 0.547098947,7.27175445 C0.547772632,7.2731 0.547772632,7.27511832 0.548446316,7.27646387 L0.547772632,7.2731 C0.704067368,7.68551099 0.892025263,8.09724921 1.05775158,8.51100576 C1.52865684,9.68634346 2.44217263,10.6793592 3.57598316,11.2471812 C4.09808842,11.5095634 4.67678316,11.6844848 5.26019368,11.656901 C5.84427789,11.6293173 6.43240421,11.3783723 6.78743579,10.9141576 C7.29337263,10.2514743 7.23476211,9.33246387 7.15189895,8.50293246 C7.65312,9.28469686 8.18533053,10.0960634 8.99105684,10.5589325 C9.79610947,11.0211288 10.9602358,11.0049822 11.5268042,10.2696393 C12.0758568,9.55717068 11.8589305,8.5338801 11.5409516,7.69358429 C12.0556463,8.47736702 12.7933305,9.11448482 13.6448674,9.50873089 C14.1157726,9.7280555 14.6715621,9.87135654 15.1485305,9.66548743 C15.5527411,9.49056597 15.8255832,9.08622827 15.9286568,8.65834346 C16.0317305,8.23045864 15.98592,7.78037225 15.8969937,7.34912356" id="Fill-25" fill="#26283C" mask="url(#mask-2)"></path>
                    </g>
                    <path d="M54.1453474,9.10661716 C54.0840421,9.10863168 54.0941474,8.30870236 53.8354526,7.0681055 C53.5747368,5.84836466 52.9562947,4.12471545 51.5085474,2.85047984 C50.7951158,2.22143534 49.9745684,1.78615 49.1776,1.59373639 C48.3792842,1.39661335 47.6193684,1.42016047 47.0083368,1.53924162 C45.7694316,1.79085942 45.1691789,2.37819188 45.1328,2.3162966 C45.1206737,2.3028411 45.2493474,2.14541178 45.5457684,1.9307966 C45.8401684,1.71752696 46.3151158,1.46052696 46.9544421,1.29771545 C47.5910737,1.14028613 48.3954526,1.08713691 49.2517053,1.27955052 C50.1086316,1.46792749 50.9877895,1.92339607 51.7416421,2.58809764 C53.2715789,3.93633848 53.8772211,5.7642678 54.0786526,7.02168403 C54.1824,7.66283848 54.2046316,8.1869301 54.1999158,8.54686466 C54.1952,8.90814476 54.1669053,9.10661716 54.1453474,9.10661716" id="Fill-28" fill="#7F808A"></path>
                    <path d="M116.191057,87.5456372 L90.2872253,77.2905298 C90.2872253,77.2905298 77.0169937,59.9120822 77.2938779,59.575022 L67.97952,69.7628518 L81.5178779,88.0650194 L112.889331,95.3989382 L127.746762,95.5186921 C126.597457,89.8122157 116.191057,87.5456372 116.191057,87.5456372" id="Fill-30" fill="#FFBF9D"></path>
                    <path d="M59.7315368,37.970539 L56.2048,36.6054788 L40.9653895,38.5349971 L40.9653895,41.2234055 L40.5288421,41.2772275 C40.5288421,41.2772275 35.7955368,42.136361 31.1936,44.8954107 C25.6215579,48.2364107 22.7253895,54.6802484 23.7574737,61.0891018 C24.3772632,64.9373741 25.5784421,69.6151777 27.8925474,72.3183872 C32.3186526,77.488662 36.3607579,71.0993191 36.3607579,71.0993191 C36.3607579,71.0993191 39.1383579,77.426094 38.9786947,80.4192694 C38.8453053,82.9253558 37.7350737,88.1474343 37.3780211,89.7782406 C37.3180632,90.0534055 37.4986105,90.3184788 37.7761684,90.3696097 L69.9230316,96.3055024 L70.08,88.4582563 L69.0580211,56.1839003 L67.6392421,43.6494317 C67.6392421,43.6494317 67.6843789,37.6610626 59.7315368,37.970539" id="Fill-32" fill="#F7CA6D"></path>
                    <polygon id="Fill-34" fill="#F7CA6D" points="67.1459705 41.5640314 79.4029811 59.2499372 69.5348547 71.2542592"></polygon>
                    <path d="M69.7736084,78.7821398 C69.7493558,78.7814662 69.7331874,78.3751102 69.7257768,77.6411128 C69.7156716,76.8479113 69.7028716,75.8004008 69.6867032,74.5335657 C69.6233768,71.9124348 69.4751663,68.2875238 68.9523874,64.3228615 C68.4444295,60.3548353 67.6723874,56.8099846 67.0815663,54.2541128 C66.7912084,53.0209165 66.5507032,52.000317 66.3694821,51.2279715 C66.2017347,50.5134846 66.1195453,50.1152018 66.1431242,50.1084041 C66.1667032,50.1024191 66.2926821,50.4892647 66.5015242,51.1936599 C66.71104,51.8980552 66.9953347,52.9226914 67.3227453,54.1962542 C67.9762189,56.7406887 68.7900295,60.2909217 69.3000084,64.2777856 C69.8254821,68.2612856 69.9346189,71.9036887 69.9346189,74.5308746 C69.9218189,75.8454767 69.9029558,76.9091338 69.8618611,77.6431312 C69.8281768,78.3771285 69.7978611,78.7828118 69.7736084,78.7821398" id="Fill-36" fill="#26283C"></path>
                    <path d="M39.6127678,51.8908565 C39.6107453,51.9473696 38.6824084,51.9359325 37.1901979,52.0159927 C35.6979874,52.0940346 33.6405558,52.2978853 31.4099874,52.7573906 C29.1787453,53.2209325 27.2095663,53.8493042 25.8089768,54.3700319 C24.4077137,54.8887414 23.5608926,55.2675136 23.53664,55.2163827 C23.5258611,55.1941812 23.7266189,55.0771183 24.1005137,54.8826864 C24.4717137,54.6855634 25.0241347,54.4292361 25.7187032,54.1392702 C27.1058189,53.5559743 29.0844295,52.8825267 31.3385768,52.4142754 C33.5927242,51.9500607 35.6771032,51.7832126 37.18144,51.7677387 C37.9339453,51.7589927 38.5429558,51.7751393 38.9626611,51.808778 C39.3823663,51.8383801 39.61344,51.8666366 39.6127678,51.8908565" id="Fill-38" fill="#FAFAFA"></path>
                    <path d="M68.0052454,59.988173 C68.0119242,60.033249 67.4312084,60.1738589 66.4765979,60.319851 C65.5233347,60.4658432 64.1948295,60.6071259 62.7221558,60.6582568 C61.2488084,60.7073694 59.9135663,60.657584 58.9522189,60.576851 C57.9901979,60.4967908 57.4013979,60.3958746 57.4054193,60.3507987 C57.4094821,60.2996678 58.0050189,60.3124505 58.9643453,60.3292699 C59.9243453,60.346762 61.2488084,60.3568537 62.7100295,60.3077411 C64.1712505,60.257283 65.4916716,60.1563668 66.4476295,60.0736154 C67.4035874,59.9915369 67.9971032,59.9377149 68.0052454,59.988173" id="Fill-40" fill="#FAFAFA"></path>
                    <path d="M73.6322021,51.9834976 C73.6941811,52.0487568 72.6095495,53.1312516 71.0028126,54.1081207 C69.3994442,55.0923903 67.9402442,55.5633327 67.9112758,55.4785631 C67.8722021,55.3823563 69.2478653,54.7748406 70.8195705,53.8087359 C72.3959916,52.85205 73.56416,51.9054558 73.6322021,51.9834976" id="Fill-42" fill="#FAFAFA"></path>
                    <path d="M68.6781979,43.783112 C68.7381558,43.8423162 67.2931032,45.1407717 65.1083453,46.0557455 C62.9296505,46.9861932 60.9907874,47.1194026 60.9901137,47.034633 C60.9712505,46.926989 62.8461137,46.6424052 64.9715874,45.7328136 C67.1044716,44.8413869 68.6135242,43.6949785 68.6781979,43.783112" id="Fill-44" fill="#FAFAFA"></path>
                    <path d="M69.3473011,73.6798817 C69.3567326,73.7020832 69.1297011,73.8198188 68.7106695,74.0142508 C68.2929853,74.2120466 67.6731958,74.4650099 66.8964379,74.7495937 C65.3456168,75.319434 63.1379537,75.9552063 60.6385853,76.3413791 C58.1378695,76.7221696 55.8406063,76.7773372 54.1894063,76.6986225 C53.3634695,76.6602743 52.6965221,76.604434 52.2384168,76.5405204 C51.7796379,76.4813162 51.5283537,76.4369131 51.531027,76.4126932 C51.5364379,76.3555073 52.5530274,76.4375859 54.1954695,76.4510414 C55.8379116,76.4658424 58.1089011,76.3723267 60.5853642,75.9949 C63.0598063,75.6127639 65.2546695,75.0213948 66.8162695,74.5147953 C68.3792168,74.0102141 69.3243958,73.6267325 69.3473011,73.6798817" id="Fill-46" fill="#FAFAFA"></path>
                    <path d="M69.5968404,82.8014306 C69.6020211,82.8128678 69.5029895,82.8680353 69.3096421,82.9642421 C69.0772211,83.0739045 68.7962947,83.2077866 68.4560842,83.3685798 C67.7150316,83.7197683 66.6176,84.1752369 65.2432842,84.6878914 C63.8703158,85.2072736 62.2056421,85.7434751 60.3334737,86.2568024 C58.4565895,86.7526374 56.3701895,87.2148338 54.1571368,87.5646767 C51.9400421,87.9010641 49.8112,88.0921322 47.8716632,88.1876662 C45.9321263,88.2643626 44.1818947,88.256962 42.7166316,88.1782474 C41.2513684,88.1049149 40.0670316,88.0026531 39.2545684,87.8923181 C38.8820211,87.8418599 38.5734737,87.8001479 38.3188211,87.7651636 C38.1052632,87.7321976 37.9941053,87.7093233 37.9954405,87.6972134 C37.9974737,87.6851034 38.1113263,87.6851034 38.3269053,87.695195 C38.5822316,87.7120144 38.8928,87.7321976 39.2673684,87.7564175 C40.0825263,87.8250406 41.2655158,87.8889542 42.7253895,87.9306662 C44.1866105,87.9777605 45.9274105,87.9595955 47.8561684,87.8647343 C49.7835789,87.7517081 51.8989474,87.5525668 54.1025684,87.2181976 C56.3041684,86.870373 58.3797895,86.4202866 60.2506105,85.9446348 C62.1173895,85.4508181 63.7820632,84.9422003 65.1597474,84.4551113 C66.5387789,83.9740772 67.6463158,83.5549385 68.4028632,83.2427709 C68.7525053,83.1061976 69.0415158,82.9931715 69.2806737,82.8996558 C69.4827789,82.8249777 69.5919158,82.7906662 69.5968404,82.8014306" id="Fill-48" fill="#FAFAFA"></path>
                    <path d="M10.4854905,225.822267 L6.84422737,242.260175 L0.210458947,254.431346 C-0.267183158,255.309317 0.0986273684,256.407285 1.00742737,256.823733 C1.51605895,257.057186 2.10149053,257.032966 2.58654316,256.753092 C5.67269053,254.971584 16.9939537,248.364262 17.1933642,247.146539 C17.4237642,245.736403 22.1867116,230.062094 22.1867116,230.062094 L10.4854905,225.822267 Z" id="Fill-50" fill="#F7CA6D"></path>
                    <path d="M1.00715789,256.823733 L17.4645895,246.043861 L17.2941474,246.736147 C17.1472842,247.334916 16.7942737,247.863717 16.2937263,248.224325 C14.9544421,249.189084 11.1973053,251.774558 2.63612632,256.765202 C2.13827368,257.05584 1.52454737,257.078042 1.00715789,256.823733" id="Fill-52" fill="#FFFFFF"></path>
                    <path d="M15.3999495,239.945897 C14.9202863,240.128219 14.6339705,240.715552 14.7970021,241.201295 C14.9600337,241.687711 15.5548968,241.983059 16.0379284,241.809484 C16.52096,241.635235 16.8860968,240.940931 16.6698442,240.476044 C16.4529179,240.011829 15.7354442,239.702353 15.3083284,239.986936" id="Fill-54" fill="#FFFFFF"></path>
                    <path d="M6.50421895,250.597336 C6.40047158,250.619538 6.24148211,249.672943 5.38118737,248.973258 C4.54110316,248.248679 3.58042947,248.257425 3.58447158,248.151799 C3.58042947,248.108069 3.81891368,248.032046 4.21504,248.071739 C4.60847158,248.108742 5.14876632,248.297792 5.61899789,248.690019 C6.08720842,249.083593 6.36813474,249.582119 6.47322947,249.962909 C6.58169263,250.345718 6.54800842,250.593299 6.50421895,250.597336" id="Fill-56" fill="#26283C"></path>
                    <path d="M4.80026947,252.500684 C4.70460632,252.551814 4.30982737,251.891822 3.52296421,251.442409 C2.74553263,250.97483 1.97551158,250.952629 1.97483789,250.844985 C1.94789053,250.749451 2.82098526,250.596058 3.71024842,251.123513 C4.60490105,251.64155 4.89660632,252.477809 4.80026947,252.500684" id="Fill-58" fill="#26283C"></path>
                    <path d="M9.36441263,248.322079 C9.26874947,248.381283 8.66580211,247.362702 7.50302316,246.556045 C6.35237053,245.731223 5.19026526,245.50517 5.21384421,245.395508 C5.20845474,245.301992 6.48037053,245.372634 7.71658105,246.254642 C8.96154947,247.122521 9.45468632,248.295841 9.36441263,248.322079" id="Fill-60" fill="#26283C"></path>
                    <path d="M10.8894316,243.418223 C10.8213895,243.505011 10.0096,242.906241 8.84345263,242.575236 C7.68134737,242.228757 6.67486316,242.298725 6.66408421,242.18839 C6.63848421,242.097566 7.69684211,241.850657 8.9472,242.220684 C10.1995789,242.579273 10.9594947,243.354309 10.8894316,243.418223" id="Fill-62" fill="#26283C"></path>
                    <path d="M12.0805053,238.619387 C12.0064,238.701465 11.2309895,237.933829 9.97389474,237.686248 C8.72218947,237.41041 7.70425263,237.803311 7.66922105,237.699031 C7.65103158,237.657992 7.88008421,237.496526 8.31124211,237.37139 C8.73903158,237.244908 9.37364211,237.184358 10.0500211,237.324295 C10.7243789,237.466251 11.2821895,237.775727 11.6237474,238.063002 C11.968,238.350277 12.1135158,238.589785 12.0805053,238.619387" id="Fill-64" fill="#26283C"></path>
                    <path d="M10.2272674,236.779819 C10.2063832,236.775109 10.2232253,236.545693 10.3566147,236.155484 C10.4906779,235.768638 10.7486989,235.214271 11.2472253,234.656541 C11.4985095,234.396177 11.7787621,234.050371 12.2887411,233.947436 C12.54272,233.894287 12.8708042,234.019423 13.0116042,234.283824 C13.1524042,234.541497 13.1476884,234.824735 13.0897516,235.085099 C12.8175832,236.119154 11.6783832,236.904282 10.4731621,236.766363 C9.26794105,236.607588 8.36924632,235.677813 8.12402526,234.667978 C8.07956211,234.410978 8.07956211,234.109575 8.27425684,233.864685 C8.46760421,233.616431 8.82735158,233.586829 9.05236211,233.684381 C9.52057263,233.876795 9.75838316,234.231347 9.99282526,234.508531 C10.4462147,235.0999 10.6779621,235.661667 10.7985516,236.052549 C10.9184674,236.446122 10.9319411,236.674866 10.9110568,236.679575 C10.8436884,236.708504 10.6948042,235.774693 9.78937263,234.672688 C9.55627789,234.412997 9.29354105,234.092083 8.95130947,233.974347 C8.78490947,233.915143 8.62120421,233.947436 8.52688842,234.069881 C8.43189895,234.186944 8.41573053,234.400214 8.45952,234.604065 C8.67173053,235.433596 9.49564632,236.281292 10.5169516,236.400374 C11.53152,236.52551 12.5312674,235.833897 12.7582989,235.003693 C12.8094989,234.803206 12.8061305,234.587918 12.7273095,234.441926 C12.6505095,234.298625 12.4969095,234.226638 12.3311832,234.250858 C11.9815411,234.300643 11.6830989,234.591955 11.4378779,234.834826 C10.4536253,235.866863 10.2959832,236.81413 10.2272674,236.779819" id="Fill-66" fill="#26283C"></path>
                    <polygon id="Fill-68" fill="#000000" points="10.0608 227.605322 9.27326316 231.375553 21.1920842 233.350147 22.1864421 230.061623 10.4852211 225.822469"></polygon>
                    <path d="M63.744,231.904825 L62.7597474,245.040081 C62.7597474,245.040081 75.7989053,250.449864 75.8534737,252.895401 L50.2824421,251.905076 L50.9743158,231.376024 L63.744,231.904825 Z" id="Fill-70" fill="#F7CA6D"></path>
                    <path d="M54.8956295,243.627119 C54.3957558,243.743509 54.0319663,244.285766 54.1276295,244.789674 C54.2226189,245.293583 54.7716716,245.666973 55.27424,245.560002 C55.7761347,245.45303 56.2328926,244.81524 56.0813137,244.324787 C55.9304084,243.83568 55.2607663,243.431342 54.7992926,243.655376" id="Fill-72" fill="#FFFFFF"></path>
                    <path d="M50.2821726,251.90474 L50.4330779,249.838648 L74.8938779,251.560952 C74.8938779,251.560952 76.0135411,252.099844 75.8538779,252.895737 L50.2821726,251.90474 Z" id="Fill-74" fill="#FFFFFF"></path>
                    <path d="M63.1791832,244.926046 C63.1704253,245.051182 62.5438989,245.082802 61.9140042,245.460229 C61.2740042,245.820836 60.9364884,246.348965 60.8233095,246.295143 C60.7087832,246.266213 60.9243621,245.528179 61.6950568,245.084821 C62.4617095,244.634734 63.2108463,244.81302 63.1791832,244.926046" id="Fill-76" fill="#26283C"></path>
                    <path d="M65.8183411,246.138184 C65.8425937,246.259957 65.2935411,246.451025 64.8489095,246.962334 C64.3887832,247.460187 64.2601095,248.025991 64.1354779,248.015899 C64.0175832,248.0307 63.9596463,247.297375 64.5248674,246.672368 C65.0840253,246.04265 65.8203621,246.01843 65.8183411,246.138184" id="Fill-78" fill="#26283C"></path>
                    <path d="M67.2170442,249.402892 C67.1025179,249.425093 66.95296,248.795376 67.3005811,248.124619 C67.6428126,247.451845 68.2417179,247.204936 68.2908968,247.311235 C68.3575916,247.416187 67.96416,247.767376 67.6872758,248.323088 C67.3982653,248.870727 67.3416758,249.394818 67.2170442,249.402892" id="Fill-80" fill="#26283C"></path>
                    <path d="M63.0709895,241.907709 C63.0144,242.019389 62.4478316,241.82563 61.7404632,241.845813 C61.0324211,241.851868 60.4739368,242.067156 60.4133053,241.957494 C60.3445895,241.865324 60.8983579,241.423984 61.7323789,241.411874 C62.5657263,241.392363 63.1363368,241.812175 63.0709895,241.907709" id="Fill-82" fill="#26283C"></path>
                    <polygon id="Fill-84" fill="#000000" points="63.5456674 234.50658 63.3738779 236.847163 50.8103411 236.246375 50.8952253 233.539802"></polygon>
                    <path d="M63.2207165,239.254083 C63.2200084,239.305886 62.7235032,239.363745 61.9400084,239.198242 C61.5506189,239.114818 61.0931874,238.968826 60.6162189,238.735373 C60.3784084,238.61831 60.1352084,238.479719 59.8960505,238.316907 C59.7815242,238.236174 59.6440926,238.154769 59.5208084,238.001376 C59.3880926,237.866148 59.3220716,237.531779 59.4891453,237.335329 C59.6279242,237.144261 59.86304,237.06891 60.0476295,237.071601 C60.2362611,237.072947 60.3871663,237.116677 60.5252716,237.156371 C60.8075453,237.236431 61.0709558,237.341384 61.3114611,237.460465 C61.7911242,237.700646 62.1771453,237.997339 62.4621137,238.279905 C63.0340716,238.851091 63.2179874,239.324724 63.1748716,239.348271 C63.1162611,239.386619 62.8427453,238.985646 62.25664,238.509321 C61.9642611,238.271831 61.5890189,238.02425 61.1396716,237.821745 C60.9146611,237.722174 60.6707874,237.634714 60.41344,237.566763 C60.1453137,237.485358 59.9149137,237.474593 59.8401347,237.592329 C59.8131874,237.637405 59.8098189,237.654897 59.86304,237.736303 C59.9189558,237.811653 60.0253979,237.887677 60.1385768,237.967064 C60.3588716,238.123148 60.5818611,238.259721 60.8001347,238.379475 C61.2380295,238.61831 61.6584084,238.785159 62.0201768,238.901549 C62.7443874,239.133656 63.2253979,239.186132 63.2207165,239.254083" id="Fill-86" fill="#26283C"></path>
                    <path d="M63.0509137,239.426851 C63.0064505,239.443671 62.7753768,238.988202 62.7612295,238.178854 C62.75584,237.777207 62.8157979,237.292809 62.9902821,236.784864 C63.0792084,236.531228 63.1957558,236.273555 63.3466611,236.021265 C63.5063242,235.774357 63.7023663,235.443351 64.1887663,235.407021 C64.4420716,235.407021 64.6448505,235.612891 64.7095242,235.784448 C64.7876716,235.960715 64.7984505,236.109398 64.8227032,236.258082 C64.8584084,236.558139 64.8415663,236.850796 64.7903663,237.119234 C64.68864,237.660145 64.4481347,238.103503 64.1921347,238.419707 C63.6666611,239.062207 63.13984,239.190707 63.1310821,239.148323 C63.0920084,239.083736 63.53664,238.860375 63.9435453,238.238731 C64.1443032,237.932618 64.3275453,237.526262 64.3955874,237.053302 C64.4292716,236.817158 64.4353347,236.566885 64.4003032,236.313249 C64.3706611,236.040103 64.2776926,235.817414 64.1746189,235.840961 C64.0472926,235.834234 63.8236295,236.030011 63.7104505,236.242608 C63.5703242,236.466642 63.4571453,236.696731 63.3661979,236.923456 C63.1883453,237.378925 63.10144,237.817574 63.0684295,238.190291 C63.0044295,238.937744 63.1196295,239.410705 63.0509137,239.426851" id="Fill-88" fill="#26283C"></path>
                    <path d="M37.2680084,90.2758249 C37.2680084,90.2758249 33.2077137,90.4534374 30.5325137,104.260123 C27.8573137,118.066809 7.29377684,229.927741 7.29377684,229.927741 L22.18624,230.061623 L50.28224,123.712063 L48.4154611,233.350147 L63.5457347,234.506647 C63.5457347,234.506647 74.8993347,113.214757 75.0071242,106.156676 C75.13984,97.3587987 70.0804716,88.4586599 70.0804716,88.4586599 L37.2680084,90.2758249 Z" id="Fill-90" fill="#26283C"></path>
                    <path d="M57.7377684,89.0938577 C57.8327579,89.1134045 56.2873263,97.001017 54.2864842,106.709158 C52.2849684,116.420664 50.5859368,124.27531 50.4909474,124.255836 C50.3959579,124.235616 51.9413895,116.350022 53.9429053,106.638517 C55.9437474,96.9303757 57.6427789,89.0743835 57.7377684,89.0938577" id="Fill-92" fill="#7F808A"></path>
                    <path d="M60.06016,91.063577 C60.03456,91.0292654 60.4636968,90.902111 60.9258442,91.314522 C61.1380547,91.5129906 61.3475705,91.843323 61.3320758,92.2664984 C61.3233179,92.6937105 60.9999495,93.1101581 60.5694653,93.2864251 C60.1423495,93.4714382 59.6175495,93.412234 59.30496,93.1189042 C58.9916968,92.8349932 58.9007495,92.4548754 58.9068126,92.1642366 C58.93376,91.5459565 59.3244968,91.3286503 59.3312337,91.3703623 C59.3777179,91.4053466 59.1122863,91.6583099 59.1547284,92.1575089 C59.1776337,92.3956712 59.2820547,92.6863099 59.5144758,92.8726686 C59.7388126,93.0644094 60.1046232,93.1007393 60.4333811,92.964166 C60.7607916,92.8249016 60.9891705,92.5376267 61.0093811,92.2436241 C61.0376758,91.9469304 60.9022653,91.6697471 60.7479916,91.4874251 C60.4199074,91.1079801 60.0527495,91.1207628 60.06016,91.063577" id="Fill-94" fill="#7F808A"></path>
                    <path d="M59.4147705,96.5312183 C59.4060126,96.4888335 59.8338021,96.5453466 60.0675705,97.0916398 C60.1713179,97.3493126 60.2178021,97.7220298 60.0264758,98.0812916 C59.8385179,98.4492995 59.3763705,98.6666058 58.9324126,98.626912 C58.4877811,98.5973099 58.0647074,98.3113806 57.9360337,97.9191529 C57.8019705,97.5343257 57.9063916,97.1730455 58.0485389,96.9342105 C58.3644968,96.4309749 58.7963284,96.4417393 58.7808337,96.4821058 C58.8023916,96.5345822 58.4628547,96.6180063 58.26816,97.0499277 C58.1765389,97.2564696 58.1293811,97.5450901 58.2378442,97.8027628 C58.3368758,98.0604356 58.6252126,98.2508309 58.95936,98.2777419 C59.2935074,98.3026346 59.6087916,98.1593335 59.7462232,97.9198257 C59.8930863,97.6823361 59.8917389,97.3903518 59.8331284,97.1723728 C59.7071495,96.7148859 59.3851284,96.5803309 59.4147705,96.5312183" id="Fill-96" fill="#7F808A"></path>
                    <path d="M45.14304,91.2025723 C45.1632505,91.2093 45.1100295,91.4575539 44.9651874,91.893512 C44.8223663,92.3301429 44.5704084,92.9490958 44.1803453,93.6750199 C43.4123453,95.1235042 41.9800926,96.9911272 39.8586611,98.3864623 C37.7372295,99.7831429 35.45344,100.361057 33.8177347,100.494939 C32.99584,100.566253 32.3275453,100.55347 31.8687663,100.513104 C31.4106611,100.47341 31.1613979,100.424297 31.1634068,100.402769 C31.1661137,100.337509 32.1806821,100.451881 33.7901137,100.248703 C35.3907874,100.054271 37.6018189,99.4528105 39.6659874,98.094478 C41.7294821,96.7361455 43.1549979,94.9445461 43.9647663,93.5532476 C44.7866611,92.1558942 45.0810611,91.1796979 45.14304,91.2025723" id="Fill-98" fill="#7F808A"></path>
                    <path d="M74.1212968,101.014926 C74.1071495,101.034437 73.9488337,100.93823 73.6739705,100.745816 C73.3943916,100.559458 73.0211705,100.244599 72.5940547,99.8227694 C71.7357811,98.9824736 70.7245811,97.6174134 70.0562863,95.8957825 C69.3947284,94.1714605 69.2269811,92.4807772 69.2983916,91.283238 C69.3320758,90.6837955 69.3974232,90.2000704 69.4789389,89.8751202 C69.5537179,89.5481516 69.6055916,89.3712118 69.6298442,89.3758296 C69.6924968,89.3873584 69.5490021,90.1126097 69.5463074,91.2892929 C69.5395705,92.4632851 69.7416758,94.0947641 70.3836968,95.7699736 C71.0331284,97.4411463 71.9796547,98.7860233 72.7739284,99.6518846 C73.5661811,100.522455 74.1603705,100.963796 74.1212968,101.014926" id="Fill-100" fill="#7F808A"></path>
                    <path d="M31.3456505,63.6690589 L37.9625768,64.0343757 C38.3809347,66.1764908 39.8333979,69.4522317 39.8333979,69.4522317 C45.1588716,60.2197421 49.2885558,47.8494306 50.3139032,42.8782971 C50.1650189,42.3817893 49.98784,41.8321322 49.7668716,41.2185615 C49.5122189,40.5101296 49.7304926,39.1679437 49.8510821,38.4231819 C50.0296084,37.3157945 50.3395032,35.8269437 50.4331453,35.1373495 C50.7167663,33.0369463 51.0556295,32.7066139 51.7892716,32.9447762 C52.7876716,33.2677081 51.3803453,38.8436662 52.1981979,38.9647657 C52.63744,39.0293521 53.17504,37.1193442 53.3306611,35.5517788 C53.4869558,33.9842134 54.1963453,29.1624359 54.7150821,28.8408495 C55.4756716,28.3699071 56.1392505,29.1153416 55.9465768,30.6761793 C55.7525558,32.2565275 55.5073347,36.9679699 56.33664,37.0312107 C57.1538189,37.0937788 57.8403032,29.0998678 57.8403032,29.0998678 C57.8403032,29.0998678 57.7109558,27.360072 58.6716295,27.401784 C60.4036716,27.4771348 59.05024,35.9049856 58.9020295,36.7035694 C58.7982821,37.2592814 59.6983242,37.3608704 59.7771453,36.7580641 C59.8586611,36.1377657 60.2770189,28.7634804 62.0407242,28.8226846 C63.3941558,28.8684332 60.9917979,35.7677395 61.7517137,37.3675982 C62.5123032,38.9661113 63.0397979,31.9356139 64.3325979,32.0324935 C64.8136084,32.0681505 65.1693137,32.162339 64.28544,36.1411296 C63.8104926,38.2798809 62.4146189,42.2115772 61.1945768,45.4671348 C59.1465768,56.5006427 50.1562611,91.7964306 36.0627874,85.3357736 C28.1759663,81.7202814 24.4963032,63.8204332 24.4963032,63.8204332 L31.3456505,63.6690589 Z" id="Fill-102" fill="#FFBF9D"></path>
                    <path d="M61.1946442,45.4729891 C61.1879074,45.4709024 61.2108126,45.3888238 61.2620126,45.2313945 C61.3219705,45.0531092 61.4001179,44.8243657 61.4978021,44.5370908 C61.7174232,43.9013186 62.0266442,43.0092191 62.4194021,41.8735751 C62.8128337,40.7157296 63.2951916,39.2975202 63.7748547,37.630384 C64.0200758,36.7988343 64.2188126,35.897316 64.4047495,34.9305385 C64.4943495,34.4481589 64.5866442,33.9509783 64.64256,33.4403421 C64.6661389,33.1860332 64.6930863,32.9256694 64.6782653,32.6747243 C64.6594021,32.4123421 64.6189811,32.1990725 64.41216,32.1943631 C64.1972547,32.1365045 64.05376,32.3134442 63.9062232,32.5368055 C63.7714863,32.7608395 63.6657179,33.0185123 63.5720758,33.2822401 C63.3834442,33.8123866 63.2352337,34.376172 63.0890442,34.9534128 C62.9421811,35.5313264 62.8067705,36.1247139 62.6309389,36.7295385 C62.5244968,37.0349783 62.4780126,37.3296537 62.2267284,37.657295 C62.1795705,37.6969887 62.1371284,37.750138 62.0421389,37.7683029 C61.9383916,37.7952139 61.8615916,37.7555202 61.7888337,37.7117898 C61.6918232,37.6250018 61.6453389,37.5388866 61.6028968,37.4574809 C61.5267705,37.2872688 61.48096,37.1136929 61.4607495,36.9448264 C61.34016,35.5938945 61.6487074,34.2887113 61.8595705,32.9337427 C61.9754442,32.2582767 62.0980547,31.5747374 62.1863074,30.8824521 C62.2294232,30.5373186 62.2658021,30.1881484 62.2705179,29.8450332 C62.2833179,29.526138 62.2267284,29.0948893 62.0872758,29.0343395 C61.9148126,28.9690804 61.6022232,29.1641851 61.4378442,29.4501144 C61.2519074,29.7306615 61.1144758,30.0636851 60.9965811,30.4034364 C60.7628126,31.0876484 60.61056,31.8176092 60.4785179,32.5556432 C60.3505179,33.2963683 60.2501389,34.0512217 60.1672758,34.8168395 C60.1295495,35.1996484 60.0918232,35.5844757 60.0540968,35.9713212 L60.0028968,36.5559626 C59.9887495,36.7140647 59.9887495,37.0443971 59.7354442,37.2341196 C59.5016758,37.4097139 59.1884126,37.4278788 58.9384758,37.2650673 C58.8131705,37.1843343 58.7154863,37.0349783 58.6966232,36.8829312 C58.6804547,36.805562 58.6946021,36.7349207 58.6999916,36.6669704 L58.7255916,36.5229966 C58.7855495,36.1327872 58.8455074,35.7405594 58.9061389,35.3469861 C59.0172968,34.5571484 59.1136337,33.7585647 59.18976,32.9532531 C59.2652126,32.1472688 59.3218021,31.3345568 59.3339284,30.5184809 C59.3352758,29.711151 59.3292126,28.8648003 59.0967916,28.1247479 C59.0199916,27.9007139 58.8960337,27.6968631 58.7565811,27.6383317 C58.61376,27.586528 58.4076126,27.6390045 58.3018442,27.7829783 C58.0687495,28.1106196 58.0296758,28.6501851 58.0485389,29.0895071 L58.0492126,29.1110359 L58.0485389,29.1231458 C57.9043705,30.7041668 57.7319074,32.2582767 57.5035284,33.7854757 C57.3863074,34.5490751 57.2616758,35.3046013 57.0690021,36.0520542 C57.0211705,36.2390856 56.9639074,36.4254442 56.8978863,36.6124757 C56.8082863,36.7988343 56.7840337,36.9885568 56.5165811,37.1930804 C56.2848337,37.3034154 56.1130442,37.1782793 56.0214232,37.0847636 C55.9230653,36.9818291 55.8833179,36.8802401 55.8381811,36.7806694 C55.7600337,36.5828736 55.72096,36.3911327 55.6866021,36.2007374 C55.4723705,34.6836301 55.5612968,33.2250542 55.6468547,31.7933893 C55.6751495,31.0741929 55.8503074,30.3630699 55.7559916,29.7313343 C55.7101811,29.4191668 55.5875705,29.1049809 55.3800758,28.9650437 C55.2776758,28.8977662 55.1604547,28.8822924 55.0344758,28.9118945 C54.9718232,28.931405 54.9084968,28.9536065 54.8465179,28.9912819 C54.7858863,29.0417401 54.7980126,29.0229024 54.7522021,29.107672 C54.4894653,29.6573291 54.3621389,30.3516327 54.2206653,30.9806772 C54.0879495,31.6245228 53.9754442,32.2650045 53.8716968,32.8967401 C53.7699705,33.5291484 53.6783495,34.1534835 53.5981811,34.7683997 C53.5139705,35.3779338 53.4722021,35.9968866 53.3522863,36.5976746 C53.23776,37.1964442 53.0989811,37.7783945 52.8807074,38.3374704 C52.8261389,38.4774076 52.7621389,38.6153264 52.6860126,38.7505542 C52.5916968,38.8770359 52.5384758,39.0418657 52.2804547,39.1205804 C52.1329179,39.1616196 52.0055916,39.0607034 51.9395705,38.9772793 C51.8829811,38.8904914 51.85536,38.8077401 51.8331284,38.7283526 C51.7987705,38.5729416 51.7839495,38.4249312 51.77856,38.2802846 C51.7637389,37.1338762 51.9341811,36.0823291 51.9914442,35.0671118 C52.0231074,34.5632034 52.0460126,34.06535 51.9874021,33.6058448 C51.95776,33.389884 51.8876968,33.1362479 51.7644126,33.0857898 C51.5838653,33.0144757 51.3507705,32.9761275 51.21536,33.0743526 C50.9175916,33.288295 50.8145179,33.7807662 50.7168337,34.1750123 C50.6218442,34.5907872 50.5787284,35.0038709 50.5019284,35.4014809 C50.2216758,36.9925935 49.9245811,38.3589992 49.7810863,39.4764783 C49.7150653,40.0348814 49.6881179,40.5387898 49.7595284,40.9586013 C49.8531705,41.3656301 49.9892547,41.7255647 50.0680758,42.0088029 C50.1482442,42.2772401 50.2115705,42.4911825 50.2614232,42.6587034 C50.3031916,42.8060411 50.3207074,42.8820647 50.3139705,42.884083 C50.3072337,42.8861013 50.2762442,42.8134416 50.2223495,42.6708134 C50.1630653,42.5066563 50.0862653,42.2967505 49.9912758,42.0343683 C49.8976337,41.7470935 49.7568337,41.4201249 49.6416337,40.9808029 C49.5547284,40.5401353 49.5708968,40.0268081 49.6247916,39.4596589 C49.7467284,38.3226694 50.0195705,36.9656825 50.2775916,35.3705332 C50.3490021,34.9742688 50.3874021,34.5531118 50.4803705,34.1245542 C50.5282021,33.909939 50.57536,33.6919599 50.6575495,33.4733081 C50.7431074,33.2607113 50.8347284,33.016494 51.0792758,32.8557008 C51.3406653,32.693562 51.6296758,32.7527662 51.8748968,32.8456092 C52.1901811,33.0259128 52.2016337,33.3286615 52.2568758,33.566151 C52.3255916,34.0687139 52.3047074,34.5719495 52.27776,35.0846039 C52.2279074,36.1058762 52.0689179,37.1796249 52.0918232,38.2654835 C52.0972126,38.3993657 52.1133811,38.5312296 52.1403284,38.6509835 C52.1686232,38.7815018 52.2359916,38.8312872 52.2225179,38.8063945 C52.2460968,38.8117767 52.3484968,38.6947139 52.4064337,38.5890882 C52.46976,38.4733709 52.5270232,38.3489076 52.5775495,38.2177165 C52.7789811,37.6936249 52.9130442,37.1197479 53.02016,36.5364521 C53.1326653,35.9551746 53.1697179,35.3490045 53.2519074,34.7246694 C53.3293811,34.1050437 53.4176337,33.476672 53.5173389,32.840227 C53.6177179,32.2037819 53.7282021,31.5592636 53.8595705,30.9073448 C54.0091284,30.2513893 54.1047916,29.6035071 54.4234442,28.9213134 C54.4429811,28.8520175 54.58176,28.6992976 54.6599074,28.662295 C54.7447916,28.6111641 54.8418021,28.5734887 54.9435284,28.5438866 C55.1490021,28.4893919 55.4002863,28.5196668 55.5868968,28.6448029 C55.9580968,28.9058395 56.0746442,29.3121955 56.1372968,29.6728029 C56.1932126,30.0421563 56.1743495,30.4162191 56.1319074,30.772117 C56.09216,31.1172505 56.0638653,31.4691118 56.0382653,31.8216458 C55.9567495,33.2290908 55.8792758,34.7038134 56.0854232,36.1307688 C56.1164126,36.3050175 56.1548126,36.479939 56.2147705,36.629295 C56.2450863,36.6985908 56.2807916,36.7732688 56.3151495,36.8042165 C56.3326653,36.8270908 56.3434442,36.8264181 56.3488337,36.8304547 L56.3515284,36.8311275 L56.3522021,36.8331458 C56.3400758,36.9912479 56.3508547,36.8667846 56.3474863,36.8977322 C56.3461389,36.8681301 56.3387284,36.8735123 56.3205389,36.8398736 C56.3548968,36.811617 56.4626863,36.6259312 56.5152337,36.4705202 C56.5745179,36.3023264 56.6277389,36.1280777 56.6735495,35.9484469 C56.8567916,35.2305961 56.9807495,34.4797793 57.0959495,33.7242531 C57.3196126,32.2105097 57.4900547,30.6577453 57.6322021,29.0874887 L57.6322021,29.1204547 C57.6241179,28.6030908 57.61536,28.0615071 57.9730863,27.5253055 C58.1819284,27.2602322 58.5591916,27.1169312 58.9128758,27.2508134 C59.2631916,27.4142976 59.3932126,27.727138 59.4915705,27.9868291 C59.7583495,28.8473081 59.7495916,29.6909678 59.7516126,30.5245359 C59.7388126,31.3574312 59.6808758,32.1788893 59.6040758,32.9922741 C59.5259284,33.8056589 59.4282442,34.6096249 59.3150653,35.4048448 C59.25376,35.8024547 59.1924547,36.1980463 59.1311495,36.5929652 C59.0812968,36.8425647 59.0934232,36.8513107 59.1682021,36.9246432 C59.2490442,36.9865385 59.4053389,36.9771196 59.4821389,36.9125332 C59.5676968,36.8553474 59.5778021,36.7376118 59.5959916,36.5189599 L59.6478653,35.9349914 C59.6869389,35.5461275 59.7260126,35.1579364 59.7644126,34.7724364 C59.8492968,34.0014364 59.9523705,33.2385097 60.0850863,32.4870202 C60.2218442,31.7362034 60.3781389,30.9941327 60.6253811,30.2756092 C60.75136,29.9170202 60.8962021,29.5624678 61.1151495,29.2314626 C61.2269811,29.068651 61.3570021,28.9058395 61.5476547,28.7854128 C61.7423495,28.6737322 61.9565811,28.5721432 62.2482863,28.6844966 C62.5251705,28.8351982 62.5723284,29.0908526 62.6154442,29.2772113 C62.6450863,29.4736615 62.6572126,29.6647296 62.6518232,29.8490699 C62.6450863,30.2197688 62.6060126,30.5776851 62.5602021,30.9308919 C62.4672337,31.6373055 62.3405811,32.3221903 62.2213389,32.9976563 C62.0023916,34.3378238 61.69856,35.6719364 61.8043284,36.8963866 C61.8204968,37.0470882 61.8602442,37.1850071 61.9114442,37.3067793 C61.9424337,37.3680018 61.9774653,37.4184599 61.9983495,37.4413343 C62.0017179,37.4339338 61.9936337,37.4285516 61.9821811,37.4709364 C61.9761179,37.5254312 61.9835284,37.4588264 61.9754442,37.4675725 C61.9498442,37.4265332 61.9687074,37.4379704 61.9794863,37.4231694 C62.12096,37.2489207 62.2213389,36.9111877 62.3095916,36.6333317 C62.4847495,36.046672 62.6248758,35.4526118 62.7764547,34.8740254 C62.92736,34.2940935 63.08096,33.7255987 63.2810442,33.1772872 C63.3814232,32.9034678 63.4919074,32.6336851 63.6482021,32.3780306 C63.7330863,32.2528945 63.8166232,32.1250673 63.9554021,32.0221327 C64.0160337,31.9669652 64.1069811,31.9279442 64.1959074,31.9030516 C64.3003284,31.8862322 64.3852126,31.8889233 64.4546021,31.9023788 C64.6129179,31.9091065 64.8278232,32.0476982 64.8803705,32.2138736 C64.9450442,32.3706301 64.9591916,32.5186406 64.9666021,32.6599233 C64.9807495,32.9431615 64.9490863,33.2089076 64.9221389,33.4726353 C64.8588126,33.9960542 64.7611284,34.4959259 64.6661389,34.9816694 C64.4700968,35.9491196 64.2572126,36.8627479 63.9991916,37.6956432 C63.4959495,39.3647976 62.9906863,40.7762793 62.5730021,41.9280699 C62.1539705,43.0785149 61.8130863,43.9665777 61.5766232,44.5660202 C61.4627705,44.8479128 61.3724968,45.0719469 61.30176,45.2468683 C61.2370863,45.3989154 61.2013811,45.4756118 61.1946442,45.4729891" id="Fill-104" fill="#FF9A6C"></path>
                    <path d="M24.4213221,64.4331293 C25.7013221,68.943412 28.2020379,75.9120141 30.8907116,83.2587157 C31.2787537,84.3210272 32.7581642,84.3896503 33.2418695,83.3677052 L39.8331958,69.4520298 C39.8331958,69.4520298 38.2459958,58.0195665 38.3807326,58.4225586 C38.5154695,58.8262236 24.7824168,59.9019906 24.7824168,59.9019906 L24.4213221,64.4331293 Z" id="Fill-106" fill="#F7CA6D"></path>
                    <path d="M39.2657516,62.1904343 C39.2805726,62.2462746 38.4472253,62.487128 37.1422989,62.9843086 C35.8380463,63.4794709 34.0729937,64.2666175 32.2526989,65.3659317 C30.4344253,66.470628 28.9193095,67.6695128 27.87712,68.5959238 C26.8322358,69.5209893 26.2326568,70.1480154 26.1902147,70.1089945 C26.1720253,70.0928479 26.3040674,69.9199448 26.5593937,69.6198872 C26.8120253,69.318484 27.2034358,68.9040547 27.7086989,68.4136018 C28.7172042,67.4326961 30.2282779,66.1846987 32.0708042,65.0665469 C33.9153516,63.9524317 35.7208253,63.1908505 37.0587621,62.7508558 C37.7277305,62.5301856 38.2761095,62.3747746 38.6614568,62.2913505 C39.0447832,62.2038898 39.2596884,62.1668872 39.2657516,62.1904343" id="Fill-108" fill="#FAFAFA"></path>
                    <path d="M41.8782316,65.6604052 C41.8438737,65.6859707 41.3952,65.1571696 40.7787789,64.2233581 C40.1630316,63.2908921 39.3997474,61.9379419 38.7429053,60.3602848 C38.0887579,58.7792639 37.6697263,57.2843581 37.4447158,56.1897534 C37.2183579,55.0944759 37.1610947,54.4048817 37.2035368,54.3980564 C37.2567579,54.3887351 37.4002526,55.0621827 37.6858947,56.1325675 C37.9708632,57.2029524 38.4215579,58.6662377 39.0669474,60.2257298 C39.7157053,61.7838764 40.4331789,63.1361539 40.9903158,64.0935126 C41.5467789,65.0522168 41.9220211,65.6294576 41.8782316,65.6604052" id="Fill-110" fill="#26283C"></path>
                    <path d="M46.2749642,4.02595209 C43.9696168,7.7470699 43.4798484,12.5614469 44.9875537,16.6795018 C45.6646063,18.5276144 46.7364379,20.3541982 46.5410695,22.3153369 C46.3396379,24.3242427 44.8137432,26.2214678 45.3526905,28.1657872 C45.6713432,29.3148866 46.6596379,30.1672924 47.0382484,31.2975542 C47.4822063,32.6242662 47.0193853,34.0599678 46.8078484,35.4445385 C46.2689011,38.9678605 47.3966484,42.5106929 47.6762274,46.0642898 C47.9558063,49.6185594 46.9951326,53.7783264 43.8214063,55.3283997 C42.8560168,55.8000149 41.5955537,55.9352427 40.7931958,55.2167191 C39.7745853,54.3051092 40.0582063,52.6662296 40.3371116,51.3200071 C43.1261642,37.851727 34.5104168,24.732617 36.4775747,11.117672 C36.7928589,8.93519031 38.0135747,5.23223743 39.5873011,3.70503848 C41.1603537,2.17783953 45.51168,2.36352539 47.0005221,3.9748212" id="Fill-112" fill="#26283C"></path>
                    <path d="M33.0048674,43.0558473 C32.9765726,43.0325644 33.4097516,42.5710408 34.0160674,41.6163733 C34.6203621,40.6684335 35.3796042,39.187656 35.7764042,37.2110435 C35.9684042,36.2234099 36.0539621,35.123423 35.9838989,33.9393393 C35.9320253,32.7539099 35.7649516,31.4796743 35.84512,30.1166325 C35.8727411,29.4344387 36.0189305,28.7401351 36.2318147,28.0545775 C36.4702989,27.3784387 36.7801937,26.7150827 37.1567832,26.0786377 C37.9106358,24.8057476 38.8652463,23.6203183 39.7390147,22.3534832 C40.6121095,21.0920304 41.3376674,19.7552267 41.5721095,18.3430723 C41.8078989,16.9309178 41.5532463,15.5322188 41.3369937,14.2142529 C41.1038989,12.8962869 40.9428884,11.5978314 41.0398989,10.3915461 C41.1166989,9.18593351 41.3578779,8.07921885 41.6859621,7.10840471 C42.34752,5.16072147 43.3250358,3.78086021 44.0667621,2.9217267 C44.4406568,2.48980524 44.7559411,2.17696492 44.9836463,1.98186021 C45.2086568,1.78271885 45.3305937,1.68314817 45.3386779,1.69256702 C45.3642779,1.71947801 44.8846147,2.13121623 44.1725305,3.00918743 C43.4705516,3.88514031 42.5401937,5.26567435 41.9210779,7.18577382 C41.6152253,8.14313246 41.3929095,9.22966387 41.3302568,10.4076927 C41.2487411,11.5890853 41.4137937,12.8404466 41.6556463,14.1604309 C41.8786358,15.4743602 42.1541726,16.9073707 41.9116463,18.3982398 C41.6684463,19.8877634 40.9118989,21.2750251 40.0286989,22.5512791 C39.1428042,23.8342607 38.1922358,25.0116168 37.4525305,26.2528864 C37.0833516,26.8738576 36.7822147,27.5129937 36.54912,28.1608759 C36.3436463,28.8161586 36.1988042,29.475478 36.1671411,30.1374885 C36.0802358,31.4574728 36.2338358,32.7283445 36.2749305,33.9265565 C36.3328674,35.1267869 36.2318147,36.259067 36.0196042,37.2608288 C35.5830568,39.2710801 34.7759832,40.756567 34.1305937,41.6917241 C33.8065516,42.1619937 33.5249516,42.5051089 33.3268884,42.7298157 C33.1241095,42.9518314 33.0136253,43.063512 33.0048674,43.0558473" id="Fill-114" fill="#7F808A"></path>
                    <path d="M26.61504,44.0631698 C26.6042611,44.0569314 26.6770189,43.9021932 26.8245558,43.6122272 C26.9896084,43.2926592 27.2072084,42.8728476 27.4787032,42.3494288 C28.0425768,41.2514602 28.8873768,39.6738031 29.7166821,37.6346225 C30.5304926,35.6035152 31.3375663,33.0590806 31.3618189,30.1587482 C31.3665347,29.436188 31.3139874,28.6974812 31.19744,27.9513738 C31.0815663,27.2039209 30.9077558,26.4409942 30.7952505,25.6451016 C30.6867874,24.8512272 30.6349137,24.0055492 30.8457768,23.1706356 C31.0546189,22.3330309 31.58144,21.5875963 32.2167242,21.0103555 C33.4872926,19.8578921 35.0192505,19.1064026 35.8101558,17.7568162 C36.6212716,16.430777 36.8004716,14.8746487 37.0045979,13.442311 C37.1804295,11.9951723 37.4579874,10.6018555 37.9322611,9.37807801 C38.3903663,8.1469 39.0027453,7.07853351 39.6413979,6.16759634 C40.9274611,4.33966702 42.3576926,3.18787644 43.3864084,2.5036644 C43.9044716,2.16189476 44.3241768,1.92305969 44.6192505,1.78312251 C44.9123032,1.63847592 45.0679242,1.56783455 45.0733137,1.57859895 C45.0915032,1.6122377 44.4696926,1.90624031 43.4638821,2.6160178 C42.4688505,3.32781361 41.0837558,4.49305969 39.8455242,6.30887906 C39.2304505,7.21376126 38.6423242,8.26934503 38.2051032,9.47966702 C37.7517137,10.6866251 37.4930189,12.0341932 37.3252716,13.4853686 C37.1265347,14.9177063 36.9614821,16.5155466 36.1032084,17.9364471 C35.2456084,19.3896408 33.6604295,20.1619864 32.4558821,21.2673555 C31.8488926,21.8210492 31.3773137,22.4931513 31.1839663,23.2580963 C30.9892716,24.0216958 31.0317137,24.8236435 31.1354611,25.5980073 C31.2432505,26.3750623 31.4136926,27.1366435 31.5288926,27.9002429 C31.6447663,28.665188 31.6946189,29.4234052 31.6851874,30.1607665 C31.6413979,33.1243398 30.7952505,35.693667 29.9464084,37.728811 C29.0800505,39.7713555 28.2002189,41.3348843 27.5986189,42.4140152 C27.3028716,42.9253241 27.0664084,43.3343712 26.8858611,43.645866 C26.7187874,43.9250675 26.6258189,44.0690414 26.61504,44.0631698" id="Fill-116" fill="#7F808A"></path>
                </g>
                <polygon id="Fill-137" fill="#26283C" points="114 95 95 111 114 111"></polygon>
                <path d="M117,168 L204,168 C206.209139,168 208,166.209139 208,164 L208,99 C208,96.790861 206.209139,95 204,95 L117,95 C114.790861,95 113,96.790861 113,99 L113,164 C113,166.209139 114.790861,168 117,168 Z" id="Fill-119" fill="#F7CA6D"></path>
                <polygon id="Fill-120" fill="#F7CA6D" points="113 95 130.399149 111 223 111 207.198472 95"></polygon>
                <g id="Group-123" transform="translate(113.000000, 95.000000)">
                    <mask id="mask-4" fill="white">
                        <use xlink:href="#path-3"></use>
                    </mask>
                    <g id="Clip-122"></g>
                    <path d="M94.5588818,0.145408 L94.6308636,0.145408 L94.6819909,0.194688 C99.7348455,5.130368 104.978755,10.252288 110.343755,15.492608 C110.398918,15.546368 110.454082,15.600768 110.506555,15.651968 L110.797173,15.934848 L110.380755,15.934848 C72.3595545,15.907328 38.6142091,15.883008 17.6567364,15.868288 L17.6157,15.868288 L17.5854273,15.841408 C6.68388182,6.082048 0.807609091,0.820608 0.235118182,0.308608 C0.811645455,0.815488 6.73702727,6.027648 17.7293909,15.694848 L17.6567364,15.667968 C38.6142091,15.652608 72.3595545,15.628288 110.380755,15.601408 L110.255627,15.884288 C110.203155,15.833088 110.147991,15.778688 110.092827,15.724928 C104.729845,10.483328 99.4872818,5.360128 94.4351,0.423168 L94.5588818,0.472448 C40.8947545,0.379008 1.93577273,0.311808 0.235118182,0.308608 C1.93644545,0.306048 40.8947545,0.238208 94.5588818,0.145408 Z" id="Fill-121" fill="#26283C" mask="url(#mask-4)"></path>
                </g>
                <path d="M140.997062,129 C139.962745,129.002092 139.017702,129.930867 139.000266,130.965628 C138.982132,132.000389 139.893698,132.961936 140.928014,132.998892 C141.962331,133.035847 142.940851,132.143331 142.997345,131.109964 C143.054535,130.077295 142.179935,129.081582 141.147711,129.005578" id="Fill-124" fill="#26283C"></path>
                <path d="M163.997063,129 C162.962746,129.002092 162.017702,129.930867 162.000266,130.965628 C161.982132,132.000389 162.893698,132.961936 163.928015,132.998892 C164.962332,133.035847 165.940853,132.143331 165.997346,131.109964 C166.054537,130.077295 165.179239,129.081582 164.147712,129.005578" id="Fill-126" fill="#26283C"></path>
                <path d="M158.997526,143.999578 C158.939993,144.02521 158.855227,142.880846 157.933156,141.429305 C157.479792,140.709943 156.801664,139.946758 155.901456,139.328272 C155.006235,138.709786 153.870139,138.264525 152.642374,138.216568 C151.413458,138.191762 150.255884,138.569221 149.330745,139.133961 C148.400236,139.698702 147.684519,140.420545 147.1951,141.112621 C146.200921,142.506695 146.057855,143.644444 146.001855,143.615091 C145.995335,143.613437 146.006074,143.546462 146.032923,143.419954 C146.065526,143.295099 146.090457,143.101615 146.173689,142.870923 C146.312536,142.399204 146.594451,141.737721 147.082718,141.020426 C147.567534,140.302305 148.290155,139.550282 149.240225,138.961562 C150.184159,138.37243 151.376253,137.97554 152.647744,138.001173 C153.918467,138.050784 155.087932,138.517129 156.000797,139.161661 C156.919416,139.805366 157.602147,140.598318 158.049758,141.344139 C158.50082,142.089547 158.748982,142.76674 158.863282,143.245901 C158.935007,143.481554 158.949965,143.675865 158.976047,143.802373 C158.996759,143.930535 159.004431,143.998337 158.997526,143.999578" id="Fill-128" fill="#26283C"></path>
                <path d="M113,96 L128.637795,115.502288 C129.396964,116.449066 130.544902,117 131.758461,117 L208,117 L208,117 L208,111.339705 L130.371134,111.339705 L113,96 Z" id="Fill-130" fill="#26283C"></path>
                <path d="M188.5005,168 C188.3555,168 188.2395,155.239262 188.2395,139.501696 C188.2395,123.758703 188.3555,111 188.5005,111 C188.6445,111 188.7605,123.758703 188.7605,139.501696 C188.7605,155.239262 188.6445,168 188.5005,168" id="Fill-132" fill="#26283C"></path>
                <path d="M199,161 L200,161 C202.209139,161 204,159.209139 204,157 L204,155 C204,152.790861 202.209139,151 200,151 L199,151 C196.790861,151 195,152.790861 195,155 L195,157 C195,159.209139 196.790861,161 199,161 Z" id="Fill-134" fill="#F5F5F5"></path>
                <path d="M105,251 L206,251 C208.209139,251 210,249.209139 210,247 L210,171 C210,168.790861 208.209139,167 206,167 L105,167 C102.790861,167 101,168.790861 101,171 L101,247 C101,249.209139 102.790861,251 105,251 Z" id="Fill-138" fill="#F7CA6D"></path>
                <path d="M182.4995,251 C182.3555,251 182.2395,232.194384 182.2395,209.002036 C182.2395,185.801544 182.3555,167 182.4995,167 C182.6445,167 182.7605,185.801544 182.7605,209.002036 C182.7605,232.194384 182.6445,251 182.4995,251" id="Fill-140" fill="#26283C"></path>
                <path d="M196,242 L197,242 C199.209139,242 201,240.209139 201,238 L201,236 C201,233.790861 199.209139,232 197,232 L196,232 C193.790861,232 192,233.790861 192,236 L192,238 C192,240.209139 193.790861,242 196,242 Z" id="Fill-141" fill="#F5F5F5"></path>
                <polygon id="Fill-142" fill="#26283C" points="134 186 147 186 147 168 134 168"></polygon>
                <polygon id="Fill-143" fill="#26283C" points="134 251 147 251 147 233 134 233"></polygon>
                <path d="M206,167.5015 C206,167.5105 205.911767,167.5195 205.741558,167.5275 C205.555706,167.5345 205.304773,167.5435 204.983755,167.5545 C204.300418,167.5655 203.322345,167.5815 202.070186,167.6035 C199.52269,167.6225 195.866336,167.6505 191.355185,167.6855 C182.292208,167.7045 169.80003,167.7305 156.002503,167.7605 C142.19997,167.7305 129.706541,167.7045 120.644189,167.6855 C116.133038,167.6505 112.476058,167.6225 109.929188,167.6035 C108.677655,167.5815 107.699582,167.5655 107.015619,167.5545 C106.695227,167.5435 106.444294,167.5345 106.258442,167.5275 C106.087607,167.5195 106,167.5105 106,167.5015 C106,167.4925 106.087607,167.4835 106.258442,167.4755 C106.444294,167.4685 106.695227,167.4605 107.015619,167.4485 C107.699582,167.4385 108.677655,167.4215 109.929188,167.3995 C112.476058,167.3805 116.133038,167.3525 120.644189,167.3165 C129.706541,167.2975 142.19997,167.2705 156.002503,167.2395 C169.80003,167.2705 182.292208,167.2975 191.355185,167.3165 C195.866336,167.3525 199.52269,167.3805 202.070186,167.3995 C203.322345,167.4215 204.300418,167.4385 204.983755,167.4485 C205.304773,167.4605 205.555706,167.4685 205.741558,167.4755 C205.911767,167.4835 206,167.4925 206,167.5015" id="Fill-144" fill="#26283C"></path>
            </g>
        </g>
    </g>
</svg>