<?xml version="1.0" encoding="UTF-8"?>
<svg width="184px" height="184px" viewBox="0 0 184 184" version="1.1" xmlns="http://www.w3.org/2000/svg" xmlns:xlink="http://www.w3.org/1999/xlink">
    <!-- Generator: sketchtool 63.1 (101010) - https://sketch.com -->
    <title>618B1EEE-3034-4D5D-9E65-D00336E723D5</title>
    <desc>Created with sketchtool.</desc>
    <g id="Page-1" stroke="none" stroke-width="1" fill="none" fill-rule="evenodd">
        <g id="1.Home" transform="translate(-628.000000, -168.000000)">
            <g id="product_nophoto" transform="translate(628.000000, 168.000000)">
                <rect id="bg_product" fill="#E8E9F2" x="0" y="0" width="184" height="184" rx="8"></rect>
                <path d="M100.292665,75.7333333 C100.450488,75.7333333 100.591455,75.7807503 100.736388,75.8830191 C104.209484,78.3287123 108.955079,79.8599346 111.904633,80.2506706 C112.079808,80.2809051 112.260271,80.2964354 112.441726,80.2964354 C113.565161,80.2964354 114.699669,79.7275966 115.583642,78.7491871 C118.705066,83.5705219 120.533333,89.4069441 120.533333,95.6973799 C120.533333,105.698403 115.91631,114.552662 108.820392,120 L108.820392,120 L75.7132714,120 C68.6173538,114.552662 64,105.698403 64,95.6973799 C64,89.907053 65.54997,84.5018447 68.2308116,79.9182559 C68.4461449,80.2832181 68.7032888,80.5967982 69.0027393,80.8608134 C69.0151337,80.8717177 69.028024,80.8822915 69.0412447,80.8927001 C69.5361973,81.277984 70.1126229,81.4735998 70.7541607,81.4735998 L70.7541607,81.4735998 L70.9845621,81.4654086 C72.6794704,81.3461108 74.488611,79.942211 76.258821,78.4713712 L76.7405252,78.0694883 C77.8518962,77.1404784 79.1799225,75.8560889 79.9611047,75.8858277 C80.9600992,75.9243231 82.3714163,77.9911759 83.5047668,79.6823274 C84.9859888,81.8934138 86.3857378,83.9819098 88.1386466,84.22676 C88.3632344,84.2660814 88.5934411,84.2860726 88.8231519,84.2860726 C91.5117607,84.2860726 93.9642135,81.5809902 96.1277925,79.1941139 C97.5984378,77.5720228 99.2650811,75.7333333 100.292665,75.7333333 Z M94.9230498,90.1229904 L89.6102835,90.1229904 C87.8385351,90.1229904 86.2507207,90.9044623 85.1692617,92.1394523 L85.1692617,92.1394523 L80.9677011,92.1394523 C78.2508329,92.1394523 76.0485832,94.3406257 76.0485832,97.0569428 L76.0485832,97.0569428 L76.0485832,101.483246 C76.0485832,104.199728 78.2509982,106.400406 80.9677011,106.400406 L80.9677011,106.400406 L85.1692617,106.400406 C86.2507207,107.635726 87.8385351,108.417198 89.6102835,108.417198 L89.6102835,108.417198 L94.9230498,108.417198 C96.694633,108.417198 98.2824474,107.635726 99.3640716,106.400406 L99.3640716,106.400406 L103.565632,106.400406 C106.2825,106.400406 108.48475,104.199563 108.48475,101.483246 L108.48475,101.483246 L108.48475,97.0569428 C108.48475,94.3404605 106.2825,92.1394523 103.565632,92.1394523 L103.565632,92.1394523 L99.3640716,92.1394523 C98.2826127,90.9044623 96.6947982,90.1229904 94.9230498,90.1229904 L94.9230498,90.1229904 Z M115.186922,64 C117.252702,64 118.933333,65.6891161 118.933333,67.765287 L118.933333,67.765287 L118.933333,69.5418452 C118.933333,71.0125213 118.071757,72.3578087 116.737858,72.9690781 C116.277683,73.1797639 115.785494,73.2929436 115.275083,73.3051524 L115.275083,73.3051524 L114.900934,73.3138966 L114.958394,73.6854428 C115.137999,74.8485869 114.896994,75.9800538 114.279542,76.8716326 C113.750415,77.635678 112.958283,78.1489462 112.30849,78.1489462 C112.237895,78.1489462 112.168451,78.1428418 112.100155,78.1306329 C112.081932,78.1273332 112.063709,78.1248584 112.047948,78.1225487 C109.349448,77.7668411 104.993958,76.3563845 101.808195,74.10104 C101.331439,73.7636457 100.803789,73.5925563 100.239693,73.5925563 C98.3503986,73.5925563 96.6362759,75.4936781 94.6509406,77.6955675 C92.774944,79.7755331 90.6484206,82.1333333 88.845809,82.1333333 C88.7280975,82.1333333 88.6098934,82.1227743 88.489391,82.1011613 C88.4728096,82.0981915 88.456064,82.0957168 88.4411243,82.0937369 C87.568877,81.9784124 86.1369665,79.8306381 85.1893641,78.4089626 C83.5906545,76.010411 82.0804337,73.7451674 80.0420708,73.7451674 C79.6652954,73.7451674 79.2945944,73.8266699 78.9503252,73.9825807 C77.9554412,74.3932283 76.8577854,75.3153293 75.5865994,76.383607 C74.1095415,77.624789 72.0867749,79.3246292 70.895705,79.3246292 C70.7075636,79.3246292 70.561122,79.2797533 70.4230531,79.1792774 C69.5713273,78.3898243 69.3112784,76.4885375 69.6704874,73.6790084 L69.6704874,73.6790084 L69.7180973,73.3071323 L69.3449337,73.3068023 C68.835343,73.3064723 68.3411845,73.2053365 67.8762486,73.0058697 C66.4934255,72.4119238 65.6,71.0524476 65.6,69.5418452 L65.6,69.5418452 L65.6,67.765287 C65.6,65.6891161 67.2807957,64 69.3465755,64 L69.3465755,64 Z" id="ico_jar" fill="#C1C2CD" fill-rule="nonzero"></path>
            </g>
        </g>
    </g>
</svg>