<?xml version="1.0" encoding="UTF-8"?>
<svg width="121px" height="40px" viewBox="0 0 121 40" version="1.1" xmlns="http://www.w3.org/2000/svg" xmlns:xlink="http://www.w3.org/1999/xlink">
    <!-- Generator: sketchtool 63.1 (101010) - https://sketch.com -->
    <title>3ADCE598-95BC-4283-9F4E-636816FAA19A</title>
    <desc>Created with sketchtool.</desc>
    <g id="Page-1" stroke="none" stroke-width="1" fill="none" fill-rule="evenodd">
        <g id="1.1.Home" transform="translate(-64.000000, -40.000000)" fill-rule="nonzero">
            <g id="Header">
                <g id="logo_store" transform="translate(64.000000, 40.000000)">
                    <path d="M58.2463996,35.1873049 C59.1135519,33.4009712 60.0023829,31.3501561 60.9128928,29.0348595 C61.8234027,26.719563 62.6515331,24.2351717 63.3972841,21.5816857 L63.3972841,21.5816857 L60.1454631,21.5816857 C59.9546896,22.3447797 59.72923,23.1642386 59.4690843,24.0400624 C59.2089386,24.9158862 58.9357856,25.79171 58.6496254,26.6675338 C58.3634651,27.5433576 58.0729691,28.3931668 57.7781374,29.2169615 C57.4833056,30.0407562 57.2058169,30.7821713 56.9456712,31.4412071 C56.6855255,30.7821713 56.403701,30.0407562 56.1001977,29.2169615 C55.7966944,28.3931668 55.5018626,27.5433576 55.2157024,26.6675338 C54.9295421,25.79171 54.6607249,24.9158862 54.4092508,24.0400624 C54.1577766,23.1642386 53.9366528,22.3447797 53.7458793,21.5816857 L53.7458793,21.5816857 L50.39,21.5816857 C51.135751,24.2351717 51.9638814,26.719563 52.8743913,29.0348595 C53.7849011,31.3501561 54.6737322,33.4009712 55.5408845,35.1873049 L55.5408845,35.1873049 L58.2463996,35.1873049 Z M70.4732466,35.4474506 L70.9154943,32.8459938 C70.4992612,32.7939646 70.156736,32.7202567 69.8879188,32.6248699 C69.6191016,32.5294832 69.4066493,32.3907388 69.2505619,32.2086368 C69.0944745,32.0265349 68.9860805,31.805411 68.9253798,31.5452653 C68.8646792,31.2851197 68.8343288,30.9642733 68.8343288,30.5827263 L68.8343288,30.5827263 L68.8343288,15 L65.6865661,15.5202914 L65.6865661,31.1810614 C65.6865661,31.8574402 65.760274,32.460111 65.9076899,32.9890739 C66.0551058,33.5180368 66.3109157,33.9602844 66.6751197,34.3158169 C67.0393236,34.6713493 67.5292647,34.9445023 68.1449428,35.1352758 C68.7606209,35.3260493 69.5367222,35.4301075 70.4732466,35.4474506 L70.4732466,35.4474506 Z M75.0518106,19.5265349 C75.572102,19.5265349 76.0230212,19.3531044 76.4045682,19.0062435 C76.7861152,18.6593826 76.9768887,18.1911204 76.9768887,17.6014568 C76.9768887,16.9944502 76.7861152,16.5175165 76.4045682,16.1706556 C76.0230212,15.8237947 75.572102,15.6503642 75.0518106,15.6503642 C74.5141762,15.6503642 74.0545855,15.8237947 73.6730385,16.1706556 C73.2914915,16.5175165 73.100718,16.9944502 73.100718,17.6014568 C73.100718,18.1911204 73.2914915,18.6593826 73.6730385,19.0062435 C74.0545855,19.3531044 74.5141762,19.5265349 75.0518106,19.5265349 Z M76.6386993,35.1873049 L76.6386993,21.5816857 L73.4909365,21.5816857 L73.4909365,35.1873049 L76.6386993,35.1873049 Z M83.7927055,40 L83.7927055,34.7190427 C84.1395664,34.9098162 84.5818141,35.0832466 85.1194485,35.239334 C85.6570829,35.3954214 86.2467464,35.4734651 86.8884391,35.4734651 C87.8423066,35.4734651 88.6964516,35.3000347 89.4508741,34.9531738 C90.2052966,34.6063129 90.833982,34.1207076 91.3369303,33.496358 C91.8398786,32.8720083 92.2257614,32.1262574 92.4945786,31.2591051 C92.7633958,30.3919528 92.8978044,29.4380853 92.8978044,28.3975026 C92.8978044,27.3048907 92.7373812,26.3206729 92.4165349,25.4448491 C92.0956885,24.5690253 91.6360978,23.8232744 91.0377627,23.2075963 C90.4394277,22.5919181 89.7153555,22.1193202 88.8655463,21.7898023 C88.0157371,21.4602844 87.0531981,21.2955255 85.9779292,21.2955255 C84.9373465,21.2955255 83.9487929,21.3735692 83.0122685,21.5296566 C82.075744,21.685744 81.2866354,21.8505029 80.6449428,22.0239334 L80.6449428,22.0239334 L80.6449428,40 L83.7927055,40 Z M86.3681478,32.7679501 C85.8478564,32.7679501 85.3579154,32.6855706 84.8983247,32.5208117 C84.438734,32.3560527 84.0701942,32.1782865 83.7927055,31.987513 L83.7927055,31.987513 L83.7927055,24.2091571 C84.1048803,24.1224419 84.4213909,24.066077 84.7422373,24.0400624 C85.0630836,24.0140479 85.3709227,24.0010406 85.6657544,24.0010406 C87.0705411,24.0010406 88.089445,24.3912591 88.7224662,25.1716961 C89.3554873,25.9521332 89.6719979,27.0447451 89.6719979,28.4495317 C89.6719979,29.7676032 89.4075165,30.8168574 88.8785536,31.5972945 C88.3495907,32.3777315 87.5127888,32.7679501 86.3681478,32.7679501 Z M102.237034,35.5254943 C102.982785,35.5254943 103.706857,35.4561221 104.409251,35.3173777 C105.111644,35.1786334 105.636271,35.022546 105.983132,34.8491155 L105.983132,34.8491155 L105.540884,32.2476587 C105.159337,32.4037461 104.708418,32.5338189 104.188127,32.6378772 C103.667836,32.7419355 103.138873,32.7939646 102.601238,32.7939646 C101.161766,32.7939646 100.138526,32.3994103 99.5315193,31.6103018 C98.9245127,30.8211932 98.6210094,29.7502601 98.6210094,28.3975026 C98.6210094,26.9927159 98.9418557,25.9044398 99.5835484,25.1326743 C100.225241,24.3609088 101.161766,23.975026 102.393122,23.975026 C102.913413,23.975026 103.403354,24.0270552 103.862945,24.1311134 C104.322536,24.2351717 104.734433,24.3652445 105.098637,24.5213319 L105.098637,24.5213319 L105.775016,21.9458897 C104.630375,21.4776275 103.416361,21.2434964 102.132976,21.2434964 C101.092393,21.2434964 100.155869,21.4255983 99.3234027,21.7898023 C98.4909365,22.1540062 97.7842074,22.6569546 97.2032154,23.2986472 C96.6222234,23.9403399 96.17564,24.6990982 95.8634651,25.574922 C95.5512903,26.4507458 95.3952029,27.391606 95.3952029,28.3975026 C95.3952029,29.4207423 95.5339473,30.370274 95.811436,31.2460978 C96.0889247,32.1219216 96.5094936,32.8763441 97.0731426,33.5093652 C97.6367915,34.1423864 98.3478564,34.6366632 99.2063371,34.9921956 C100.064818,35.3477281 101.07505,35.5254943 102.237034,35.5254943 Z M114.203736,35.5515088 C115.174946,35.5515088 116.063777,35.3780784 116.870229,35.0312175 C117.676681,34.6843566 118.366067,34.1987513 118.938387,33.5744017 C119.510708,32.950052 119.952955,32.1956296 120.26513,31.3111342 C120.577305,30.4266389 120.733392,29.4467569 120.733392,28.371488 C120.733392,27.2962192 120.572969,26.3206729 120.252123,25.4448491 C119.931276,24.5690253 119.484693,23.8189386 118.912373,23.194589 C118.340052,22.5702393 117.650666,22.0889698 116.844214,21.7507804 C116.037763,21.4125911 115.157603,21.2434964 114.203736,21.2434964 C113.249868,21.2434964 112.374044,21.4125911 111.576264,21.7507804 C110.778484,22.0889698 110.089098,22.5702393 109.508106,23.194589 C108.927114,23.8189386 108.476195,24.5690253 108.155349,25.4448491 C107.834502,26.3206729 107.674079,27.2962192 107.674079,28.371488 C107.674079,29.4467569 107.834502,30.4266389 108.155349,31.3111342 C108.476195,32.1956296 108.922778,32.950052 109.495099,33.5744017 C110.067419,34.1987513 110.75247,34.6843566 111.55025,35.0312175 C112.34803,35.3780784 113.232525,35.5515088 114.203736,35.5515088 Z M114.203736,32.8199792 C113.163153,32.8199792 112.352366,32.4210891 111.771374,31.6233091 C111.190382,30.825529 110.899886,29.7415886 110.899886,28.371488 C110.899886,27.0187305 111.190382,25.9477974 111.771374,25.1586889 C112.352366,24.3695803 113.163153,23.975026 114.203736,23.975026 C115.244318,23.975026 116.055106,24.3695803 116.636098,25.1586889 C117.21709,25.9477974 117.507586,27.0187305 117.507586,28.371488 C117.507586,29.7415886 117.21709,30.825529 116.636098,31.6233091 C116.055106,32.4210891 115.244318,32.8199792 114.203736,32.8199792 Z" id="vlipco" fill="#26283C"></path>
                    <g id="store">
                        <path d="M31.9318182,20.0246754 C30.6732212,20.0256903 29.4588041,19.5716139 28.5227273,18.75 C27.5866505,19.5716139 26.3722333,20.0256903 25.1136364,20.0246754 L14.8863636,20.0246754 C13.6277667,20.0256903 12.4133495,19.5716139 11.4772727,18.75 C10.5411959,19.5716139 9.32677879,20.0256903 8.06818182,20.0246754 L2.95454545,20.0246754 C2.37348593,20.0234809 1.79694255,19.9249497 1.25,19.7333686 L1.25,38.3353896 C1.25,39.2547285 2.01315099,40 2.95454545,40 L6.36363636,40 L6.36363636,25.0185066 C6.36363636,24.0991676 7.12678736,23.3538962 8.06818182,23.3538962 L16.5909091,23.3538962 C17.5323036,23.3538962 18.2954545,24.0991676 18.2954545,25.0185066 L18.2954545,40 L37.0454545,40 C37.986849,40 38.75,39.2547285 38.75,38.3353896 L38.75,19.7333686 C38.2030575,19.9249497 37.6265141,20.0234809 37.0454545,20.0246754 L31.9318182,20.0246754 Z M33.6363636,30.0123377 C33.6363636,30.9316766 32.8732126,31.6769481 31.9318182,31.6769481 L23.4090909,31.6769481 C22.4676964,31.6769481 21.7045455,30.9316766 21.7045455,30.0123377 L21.7045455,25.0185066 C21.7045455,24.0991676 22.4676964,23.3538962 23.4090909,23.3538962 L31.9318182,23.3538962 C32.8732126,23.3538962 33.6363636,24.0991676 33.6363636,25.0185066 L33.6363636,30.0123377 Z" id="Combined-Shape" fill="#F7856D"></path>
                        <path d="M39.9929167,12.5 L0,12.5 L0,14.1666667 C0,16.0076158 1.49238417,17.5 3.33333333,17.5 L8.33333333,17.5 C10.1742825,17.5 11.6666667,16.0076158 11.6666667,14.1666667 C11.6666667,16.0076158 13.1590508,17.5 15,17.5 L25,17.5 C26.8409492,17.5 28.3333333,16.0076158 28.3333333,14.1666667 C28.3333333,16.0076158 29.8257175,17.5 31.6666667,17.5 L36.6666667,17.5 C38.5076158,17.5 40,16.0076158 40,14.1666667 L40,12.5 L39.9929167,12.5 Z" id="Path" fill="#F7CA6D"></path>
                        <path d="M40,11.25 L36.9446622,1.16517857 C36.7354485,0.475421033 36.0667795,0 35.3060025,0 L27.5,0 L29.885984,11.25 L40,11.25 Z" id="Path" fill="#F7856D"></path>
                        <path d="M12.5,0 L4.69399755,0 C3.93322054,0 3.26455146,0.475421033 3.05533779,1.16517857 L0,11.25 L10.114016,11.25 L12.5,0 Z" id="Path" fill="#F7856D"></path>
                        <polygon id="Path" fill="#F7CA6D" points="23.9353383 0 16.0646617 0 13.75 11.25 26.25 11.25"></polygon>
                    </g>
                    <path d="M52.4974066,9.23106846 C53.4387967,9.23106846 54.1681795,9.04045643 54.685555,8.65923237 C55.2029305,8.2780083 55.4616183,7.73340249 55.4616183,7.02541494 C55.4616183,6.64419087 55.4032676,6.31937241 55.2865664,6.05095954 C55.1698651,5.78254668 55.0045384,5.55108921 54.7905861,5.35658714 C54.5766338,5.16208506 54.3237811,4.99481328 54.032028,4.85477178 C53.7402749,4.71473029 53.4193465,4.5746888 53.0692427,4.4346473 C52.8202801,4.34128631 52.5927127,4.24792531 52.3865405,4.15456432 C52.1803683,4.06120332 51.9994813,3.95811722 51.8438797,3.84530602 C51.688278,3.73249481 51.5676867,3.60217842 51.4821058,3.45435685 C51.3965249,3.30653527 51.3537344,3.12370332 51.3537344,2.905861 C51.3537344,2.71135892 51.3945799,2.54214212 51.4762707,2.39821058 C51.5579616,2.25427905 51.6688278,2.13563278 51.8088693,2.04227178 C51.9489108,1.94891079 52.1122925,1.87889004 52.2990145,1.83220954 C52.4857365,1.78552905 52.6880187,1.7621888 52.905861,1.7621888 C53.3337656,1.7621888 53.7091546,1.81081432 54.032028,1.90806535 C54.3549015,2.00531639 54.598029,2.10451245 54.7614108,2.20565353 L54.7614108,2.20565353 L55.1231846,1.28371369 C54.9364627,1.15923237 54.6427645,1.04447614 54.2420902,0.939445021 C53.841416,0.8344139 53.3960062,0.78189834 52.905861,0.78189834 C52.057832,0.78189834 51.3926349,0.980290456 50.9102697,1.37707469 C50.4279046,1.77385892 50.186722,2.32624481 50.186722,3.03423237 C50.186722,3.37655602 50.2431276,3.66830913 50.3559388,3.9094917 C50.46875,4.15067427 50.6224066,4.35879149 50.8169087,4.53384336 C51.0114108,4.70889523 51.2409232,4.86060685 51.5054461,4.98897822 C51.7699689,5.11734959 52.0500519,5.23210581 52.345695,5.33324689 C52.6024378,5.42660788 52.8455654,5.51996888 53.0750778,5.61332988 C53.3045902,5.70669087 53.5088174,5.81755705 53.6877593,5.94592842 C53.8667012,6.07429979 54.0086878,6.22601141 54.1137189,6.40106328 C54.21875,6.57611515 54.2712656,6.78812241 54.2712656,7.03708506 C54.2712656,7.84621369 53.6799793,8.25077801 52.4974066,8.25077801 C51.968361,8.25077801 51.5210062,8.18853734 51.1553423,8.06405602 C50.7896784,7.93957469 50.5173755,7.82676349 50.3384336,7.72562241 L50.3384336,7.72562241 L50,8.65923237 C50.0855809,8.70591286 50.2042272,8.76231846 50.3559388,8.82844917 C50.5076504,8.89457988 50.6885373,8.95682054 50.8985996,9.01517116 C51.1086618,9.07352178 51.3478994,9.12409232 51.6163122,9.16688278 C51.8847251,9.20967324 52.1784232,9.23106846 52.4974066,9.23106846 Z M58.7992739,9.18438797 C59.1493776,9.18438797 59.4605809,9.14354253 59.7328838,9.06185166 C60.0051867,8.98016079 60.1957988,8.91208506 60.3047199,8.85762448 L60.3047199,8.85762448 L60.0946577,7.9590249 C60.0168568,7.99014523 59.8787604,8.04266079 59.6803683,8.11657158 C59.4819761,8.19048237 59.2193983,8.22743776 58.8926349,8.22743776 C58.7059129,8.22743776 58.5425311,8.20409751 58.4024896,8.15741701 C58.2624481,8.11073651 58.1457469,8.03099066 58.0523859,7.91817946 C57.9590249,7.80536826 57.8890041,7.6497666 57.8423237,7.45137448 C57.7956432,7.25298237 57.7723029,7.00207469 57.7723029,6.69865145 L57.7723029,6.69865145 L57.7723029,3.89782158 L60.0713174,3.89782158 L60.0713174,2.98755187 L57.7723029,2.98755187 L57.7723029,1.10866183 L56.6869813,1.29538382 L56.6869813,6.71032158 C56.6869813,7.11488589 56.7200467,7.47082469 56.7861774,7.77813797 C56.8523081,8.08545124 56.9670643,8.344139 57.1304461,8.55420124 C57.2938278,8.76426349 57.5097251,8.92181017 57.778138,9.02684129 C58.0465508,9.13187241 58.3869295,9.18438797 58.7992739,9.18438797 Z M63.9574689,9.20772822 C64.3698133,9.20772822 64.7510373,9.13187241 65.1011411,8.98016079 C65.4512448,8.82844917 65.752723,8.61255187 66.0055757,8.33246888 C66.2584284,8.05238589 66.4548755,7.71784232 66.594917,7.32883817 C66.7349585,6.93983402 66.8049793,6.50414938 66.8049793,6.02178423 C66.8049793,5.54719917 66.7349585,5.11345954 66.594917,4.72056535 C66.4548755,4.32767116 66.2584284,3.99118257 66.0055757,3.71109959 C65.752723,3.4310166 65.4512448,3.21511929 65.1011411,3.06340768 C64.7510373,2.91169606 64.3698133,2.83584025 63.9574689,2.83584025 C63.5451245,2.83584025 63.1639004,2.91169606 62.8137967,3.06340768 C62.4636929,3.21511929 62.1622147,3.4310166 61.909362,3.71109959 C61.6565093,3.99118257 61.4600622,4.32767116 61.3200207,4.72056535 C61.1799793,5.11345954 61.1099585,5.54719917 61.1099585,6.02178423 C61.1099585,6.50414938 61.1799793,6.93983402 61.3200207,7.32883817 C61.4600622,7.71784232 61.6565093,8.05238589 61.909362,8.33246888 C62.1622147,8.61255187 62.4636929,8.82844917 62.8137967,8.98016079 C63.1639004,9.13187241 63.5451245,9.20772822 63.9574689,9.20772822 Z M63.9574689,8.25077801 C63.4284232,8.25077801 63.0102438,8.05044087 62.7029305,7.6497666 C62.3956172,7.24909232 62.2419606,6.70643154 62.2419606,6.02178423 C62.2419606,5.33713693 62.3956172,4.79447614 62.7029305,4.39380187 C63.0102438,3.99312759 63.4284232,3.79279046 63.9574689,3.79279046 C64.4865145,3.79279046 64.904694,3.99312759 65.2120073,4.39380187 C65.5193205,4.79447614 65.6729772,5.33713693 65.6729772,6.02178423 C65.6729772,6.70643154 65.5193205,7.24909232 65.2120073,7.6497666 C64.904694,8.05044087 64.4865145,8.25077801 63.9574689,8.25077801 Z M69.4190871,9.0560166 L69.4190871,3.9561722 C69.4813278,3.94061203 69.6116442,3.91143672 69.8100363,3.86864627 C70.0084284,3.82585581 70.2087656,3.80446058 70.4110477,3.80446058 C70.722251,3.80446058 70.9770488,3.82585581 71.1754409,3.86864627 C71.373833,3.91143672 71.5158195,3.94839212 71.6014004,3.97951245 L71.6014004,3.97951245 L71.7881224,3.03423237 C71.7414419,3.0186722 71.6694761,3.00116701 71.5722251,2.9817168 C71.4749741,2.9622666 71.3679979,2.94281639 71.2512967,2.92336618 C71.1345954,2.90391598 71.0159492,2.88835581 70.8953579,2.87668568 C70.7747666,2.86501556 70.6677905,2.8591805 70.5744295,2.8591805 C70.0998444,2.8591805 69.6719398,2.90002593 69.2907158,2.9817168 C68.9094917,3.06340768 68.5905083,3.15093361 68.3337656,3.24429461 L68.3337656,3.24429461 L68.3337656,9.0560166 L69.4190871,9.0560166 Z M75.5575726,9.19605809 C75.9776971,9.19605809 76.3530861,9.15715768 76.6837396,9.07935685 C77.0143932,9.00155602 77.2458506,8.92764523 77.378112,8.85762448 L77.378112,8.85762448 L77.2264004,7.94735477 C77.094139,8.00959544 76.8976919,8.07378112 76.6370591,8.13991183 C76.3764263,8.20604253 76.0554979,8.23910788 75.6742739,8.23910788 C74.9974066,8.23910788 74.4994813,8.07572614 74.1804979,7.74896266 C73.8615145,7.42219917 73.6786826,6.94372407 73.6320021,6.31353734 L73.6320021,6.31353734 L77.7865664,6.31353734 C77.7943465,6.25129668 77.7982365,6.18322095 77.7982365,6.10931017 L77.7982365,6.10931017 L77.7982365,5.92842324 C77.7982365,4.88589212 77.5803942,4.10982884 77.1447095,3.6002334 C76.7090249,3.09063797 76.0827282,2.83584025 75.2658195,2.83584025 C74.9157158,2.83584025 74.5733921,2.90197095 74.2388485,3.03423237 C73.904305,3.16649378 73.6086618,3.36488589 73.3519191,3.62940871 C73.0951763,3.89393154 72.8890041,4.22653008 72.7334025,4.62720436 C72.5778008,5.02787863 72.5,5.49662863 72.5,6.03345436 C72.5,6.49247925 72.5602956,6.91454876 72.6808869,7.29966286 C72.8014782,7.68477697 72.9862552,8.01737552 73.2352178,8.29745851 C73.4841805,8.57754149 73.8012189,8.79732884 74.186333,8.95682054 C74.5714471,9.11631224 75.028527,9.19605809 75.5575726,9.19605809 Z M76.6662344,5.43827801 L73.6553423,5.43827801 C73.6786826,5.22821577 73.7273081,5.02204357 73.8012189,4.81976141 C73.8751297,4.61747925 73.9782158,4.43853734 74.1104772,4.28293568 C74.2427386,4.12733402 74.4041753,4.00090768 74.5947873,3.90365664 C74.7853994,3.8064056 75.0051867,3.75778008 75.2541494,3.75778008 C75.6976141,3.75778008 76.0457728,3.91532676 76.2986255,4.23042012 C76.5514782,4.54551349 76.6740145,4.94813278 76.6662344,5.43827801 L76.6662344,5.43827801 Z M84.3568465,9.19605809 C84.8236515,9.19605809 85.2437759,9.1221473 85.6172199,8.97432573 C85.9906639,8.82650415 86.3096473,8.61644191 86.5741701,8.344139 C86.8386929,8.0718361 87.0429201,7.73923755 87.1868517,7.34634336 C87.3307832,6.95344917 87.402749,6.51192946 87.402749,6.02178423 C87.402749,5.55497925 87.3424533,5.12707469 87.221862,4.73807054 C87.1012707,4.34906639 86.9242739,4.01452282 86.6908714,3.73443983 C86.4574689,3.45435685 86.1715508,3.23651452 85.8331172,3.08091286 C85.4946836,2.9253112 85.1076245,2.84751037 84.6719398,2.84751037 C84.3218361,2.84751037 84.0125778,2.89419087 83.7441649,2.98755187 C83.4757521,3.08091286 83.2754149,3.17038382 83.1431535,3.25596473 L83.1431535,3.25596473 L83.1431535,0 L82.057832,0.186721992 L82.057832,8.88096473 C82.3067946,8.95098548 82.625778,9.02100622 83.0147822,9.09102697 C83.4037863,9.16104772 83.8511411,9.19605809 84.3568465,9.19605809 Z M84.3451763,8.23910788 C84.0495332,8.23910788 83.8025156,8.22549274 83.6041234,8.19826245 C83.4057313,8.17103216 83.2520747,8.14185685 83.1431535,8.11073651 L83.1431535,8.11073651 L83.1431535,4.27126556 C83.2754149,4.1623444 83.466027,4.05731328 83.7149896,3.9561722 C83.9639523,3.85503112 84.2362552,3.80446058 84.5318983,3.80446058 C84.8431017,3.80446058 85.1095695,3.86086618 85.3313019,3.97367739 C85.5530342,4.08648859 85.7339212,4.24209025 85.8739627,4.44048237 C86.0140041,4.63887448 86.1151452,4.87422199 86.1773859,5.1465249 C86.2396266,5.4188278 86.2707469,5.71058091 86.2707469,6.02178423 C86.2707469,6.72977178 86.095695,7.27632261 85.7455913,7.66143672 C85.3954876,8.04655083 84.9286826,8.23910788 84.3451763,8.23910788 Z M88.9665456,11.25 C89.285529,11.25 89.5714471,11.2110996 89.8242998,11.1332988 C90.0771525,11.0554979 90.3047199,10.9349066 90.5070021,10.7715249 C90.7092842,10.6081432 90.8940612,10.4000259 91.061333,10.1471732 C91.2286048,9.89432054 91.3900415,9.59284232 91.5456432,9.24273859 C91.9424274,8.3246888 92.3119813,7.33856328 92.654305,6.28436203 C92.9966286,5.23016079 93.307832,4.13122407 93.5879149,2.98755187 L93.5879149,2.98755187 L92.467583,2.98755187 C92.2730809,3.83558091 92.0669087,4.66026971 91.8490664,5.46161826 C91.6312241,6.2629668 91.3744813,7.07209544 91.0788382,7.88900415 C90.8921162,7.49221992 90.7131743,7.07987552 90.5420124,6.65197095 C90.3708506,6.22406639 90.2113589,5.79616183 90.0635373,5.36825726 C89.9157158,4.9403527 89.7815093,4.52411826 89.660918,4.11955394 C89.5403268,3.71498963 89.4372407,3.3376556 89.3516598,2.98755187 L89.3516598,2.98755187 L88.1846473,2.98755187 C88.4647303,4.06120332 88.816779,5.12123963 89.2407936,6.16766079 C89.6648081,7.21408195 90.121888,8.20409751 90.6120332,9.13770747 C90.4175311,9.56561203 90.1996888,9.87487033 89.9585062,10.0654824 C89.7173237,10.2560944 89.3827801,10.3514004 88.9548755,10.3514004 C88.8226141,10.3514004 88.6884077,10.3338952 88.5522562,10.2988849 C88.4161048,10.2638745 88.3052386,10.2269191 88.2196577,10.1880187 L88.2196577,10.1880187 L88.0212656,11.063278 C88.0523859,11.0788382 88.1049015,11.0982884 88.1788122,11.1216286 C88.252723,11.1449689 88.3344139,11.1663641 88.4238849,11.1858143 C88.5133558,11.2052645 88.6047718,11.2208247 88.6981328,11.2324948 C88.7914938,11.2441649 88.8809647,11.25 88.9665456,11.25 Z" id="Storeby" fill="#26283C"></path>
                </g>
            </g>
        </g>
    </g>
</svg>